<svg width="24" height="24" viewBox="0 0 24 24" fill="none" xmlns="http://www.w3.org/2000/svg">
<path d="M12 2C17.5228 2 22 6.47715 22 12C22 12.0042 21.999 12.0085 21.999 12.0127C20.855 11.2471 19.4799 10.7998 18 10.7998C14.0235 10.7998 10.7998 14.0235 10.7998 18C10.7998 19.4799 11.2471 20.855 12.0127 21.999C12.0085 21.999 12.0042 22 12 22C6.47715 22 2 17.5228 2 12C2 6.47715 6.47715 2 12 2Z" fill="#FFC95C"/>
<path d="M12 1.25C17.9371 1.25 22.75 6.06294 22.75 12C22.75 12.1933 22.7425 12.3854 22.7324 12.5762C22.2807 12.1817 21.7797 11.8431 21.2393 11.5703C21.0148 6.66117 16.9646 2.75 12 2.75C6.89137 2.75 2.75 6.89137 2.75 12C2.75 16.9646 6.66117 21.0148 11.5703 21.2393C11.8434 21.7801 12.1823 22.2814 12.5771 22.7334C12.386 22.7435 12.1937 22.75 12 22.75C6.06294 22.75 1.25 17.9371 1.25 12C1.25 6.06294 6.06294 1.25 12 1.25Z" fill="#B66A1F"/>
<path fill-rule="evenodd" clip-rule="evenodd" d="M12 4.25C14.0711 4.25 15.75 5.92893 15.75 8C15.75 9.55427 14.8043 10.8874 13.457 11.4561C13.8226 11.5065 14.1851 11.5837 14.542 11.6826C14.0114 11.9737 13.5226 12.331 13.084 12.7412C12.7279 12.6738 12.3656 12.6315 12 12.6152C10.0328 12.513 7.98521 13.2222 6.48926 14.6357C6.26825 14.8431 6.05916 15.0648 5.86426 15.2988C5.82027 15.3517 5.75517 15.3856 5.68555 15.3936C5.61572 15.4013 5.5459 15.3827 5.49121 15.3408C5.4365 15.2988 5.40022 15.2365 5.38965 15.167C5.37918 15.0975 5.39479 15.0261 5.43457 14.9697C5.62312 14.704 5.82754 14.448 6.0459 14.2041C7.24067 12.8562 8.91167 11.8858 10.7334 11.5293C9.28582 11.0097 8.25 9.6264 8.25 8C8.25 5.92893 9.92893 4.25 12 4.25ZM12 5.75C10.7574 5.75 9.75 6.75736 9.75 8C9.75 9.24264 10.7574 10.25 12 10.25C13.2426 10.25 14.25 9.24264 14.25 8C14.25 6.75736 13.2426 5.75 12 5.75Z" fill="#B66A1F"/>
<path d="M24 18C24 21.3137 21.3137 24 18 24C14.6863 24 12 21.3137 12 18C12 14.6863 14.6863 12 18 12C21.3137 12 24 14.6863 24 18Z" fill="#CC3B0A"/>
<rect x="15" y="17" width="6" height="2" rx="1" fill="white"/>
</svg>
