<svg fill="none" viewBox="0 0 16 16" xmlns="http://www.w3.org/2000/svg">
  <g clip-path="url(#Ai-Model-OpenAi-16_svg__a)">
    <path fill="#000" d="M14.838 6.545a4 4 0 0 0-.34-3.273 4.03 4.03 0 0 0-4.33-1.934 4 4 0 0 0-3.003-1.34 4.04 4.04 0 0 0-3.837 2.791 4 4 0 0 0-2.66 1.936 4.04 4.04 0 0 0 .496 4.725 3.98 3.98 0 0 0 .34 3.268 4.03 4.03 0 0 0 4.336 1.94 3.98 3.98 0 0 0 2.996 1.344 4.04 4.04 0 0 0 3.839-2.791 3.97 3.97 0 0 0 2.654-1.936 4.03 4.03 0 0 0-.492-4.725zm-1.244-2.749c.347.607.476 1.317.357 2.005-.02-.016-.065-.038-.091-.054l-3.18-1.842a.53.53 0 0 0-.524 0L6.432 6.062V4.479l3.076-1.783a2.99 2.99 0 0 1 4.088 1.1M6.43 7.086 8 6.176l1.568.91v1.816L8 9.812l-1.569-.91zm.73-6.042a3 3 0 0 1 1.919.694c-.021.01-.065.038-.097.054L5.804 3.629a.52.52 0 0 0-.26.455v4.313l-1.367-.79V4.04a2.997 2.997 0 0 1 2.99-3.002l-.006.005zM1.576 5.25a3 3 0 0 1 1.557-1.316V7.72c0 .19.097.358.259.455l3.72 2.151-1.374.797-3.07-1.777a3.005 3.005 0 0 1-1.093-4.098m.838 6.953a2.98 2.98 0 0 1-.357-2.005c.021.016.064.039.092.054l3.178 1.842a.53.53 0 0 0 .525 0l3.72-2.156v1.582l-3.077 1.778a2.995 2.995 0 0 1-4.087-1.095zm6.43 2.754a2.98 2.98 0 0 1-1.914-.694c.022-.01.07-.038.096-.054l3.179-1.837a.51.51 0 0 0 .259-.455V7.608l1.368.79v3.562a2.997 2.997 0 0 1-2.99 3.002v-.005zm5.59-4.207a3 3 0 0 1-1.557 1.312V8.273a.52.52 0 0 0-.259-.455L8.892 5.66l1.368-.792 3.076 1.778a3 3 0 0 1 1.093 4.097z"/>
  </g>
  <defs>
    <clipPath id="Ai-Model-OpenAi-16_svg__a">
      <path fill="#fff" d="M0 0h16v16H0z"/>
    </clipPath>
  </defs>
</svg>
