<svg width="16" height="16" viewBox="0 0 16 16" fill="none" xmlns="http://www.w3.org/2000/svg">
<g clip-path="url(#clip0_12536_75011)">
<path d="M6.22064 14.6407C6.05983 15.2409 5.43846 15.6043 4.86677 15.3609C3.44275 14.7548 2.21703 13.7448 1.34826 12.4446C0.269975 10.8308 -0.184873 8.88005 0.0684605 6.95579C0.321794 5.03153 1.26603 3.26498 2.72525 1.98528C4.18447 0.70558 6.05915 9.254e-08 8.00002 0C9.94088 -9.254e-08 11.8156 0.70558 13.2748 1.98528C14.734 3.26498 15.6782 5.03153 15.9316 6.95579C16.1849 8.88005 15.7301 10.8308 14.6518 12.4446C13.783 13.7448 12.5573 14.7548 11.1333 15.3609C10.5616 15.6043 9.94021 15.2409 9.7794 14.6407L8.82516 11.0795C8.66435 10.4793 9.06047 9.87561 9.49018 9.42685C9.57281 9.34055 9.64826 9.24674 9.71544 9.1462C9.99352 8.73003 10.1108 8.22696 10.0455 7.73071C9.98015 7.23446 9.73664 6.77889 9.36033 6.44887C8.98401 6.11885 8.50055 5.93688 8.00002 5.93688C7.49949 5.93688 7.01603 6.11885 6.63971 6.44887C6.2634 6.77889 6.01989 7.23446 5.95455 7.73071C5.88922 8.22696 6.00652 8.73003 6.2846 9.14621C6.35178 9.24674 6.42723 9.34055 6.50986 9.42685C6.93957 9.87561 7.33568 10.4793 7.17487 11.0795L6.22064 14.6407Z" fill="black"/>
</g>
<defs>
<clipPath id="clip0_12536_75011">
<rect width="16" height="16" fill="white"/>
</clipPath>
</defs>
</svg>
