<svg width="16" height="16" viewBox="0 0 16 16" fill="none" xmlns="http://www.w3.org/2000/svg">
<path d="M13.875 6C15.0486 6.00002 16 6.95141 16 8.125V12.875C16 14.0486 15.0486 15 13.875 15H11.125C9.9514 15 9 14.0486 9 12.875V8.125C9 6.9514 9.9514 6 11.125 6H13.875ZM11.125 7.25C10.6418 7.25 10.25 7.64175 10.25 8.125V12.875C10.25 13.3582 10.6418 13.75 11.125 13.75H13.875C14.3582 13.75 14.75 13.3582 14.75 12.875V8.125C14.75 7.64176 14.3582 7.25002 13.875 7.25H11.125ZM9 1C10.8191 1.00001 12.3546 2.21439 12.8401 3.8767C12.9349 4.20141 12.6703 4.5 12.332 4.5H12.173C11.9016 4.5 11.6747 4.30327 11.5808 4.04857C11.1936 2.99869 10.1843 2.25001 9 2.25H4C2.48122 2.25 1.25 3.48122 1.25 5V9C1.25 10.5188 2.48122 11.75 4 11.75H6.9375C7.24816 11.75 7.5 12.0018 7.5 12.3125V12.4375C7.5 12.7482 7.24816 13 6.9375 13H4C1.79086 13 0 11.2091 0 9V5C1.28861e-07 2.79086 1.79086 1 4 1H9ZM6.3822 4.00366C6.72737 4.00366 7.00719 4.28349 7.0072 4.62866C7.0072 4.97383 6.72737 5.25365 6.3822 5.25366H5.13745L7.81689 7.93311C8.06097 8.17718 8.06097 8.57294 7.81689 8.81702C7.57281 9.06106 7.17705 9.06108 6.93298 8.81702L4.24988 6.13391V7.37866C4.24987 7.72383 3.97016 8.00365 3.625 8.00366C3.27982 8.00366 3 7.72384 3 7.37866V4.62878C3 4.28361 3.27982 4.00367 3.625 4.00366H6.3822Z" fill="black"/>
</svg>
