<svg fill="none" viewBox="0 0 96 96" xmlns="http://www.w3.org/2000/svg">
  <path fill="#666" d="M38 16h24a7 7 0 0 1 7 7v25.382c0 1.542-1.178 2.809-2.678 3.168C57.533 53.656 51 61.565 51 71v5.913c-1.105.7-5.154 0-6.5 0L38 78a7 7 0 0 1-7-7V23a7 7 0 0 1 7-7"/>
  <path fill="#888" d="M34 16h24a7 7 0 0 1 7 7v28.916C56.886 54.464 51 62.045 51 71v6a3 3 0 0 1-3 3H34a7 7 0 0 1-7-7V23a7 7 0 0 1 7-7"/>
  <path fill="#ffd65c" fill-rule="evenodd" d="M30 23a4 4 0 0 1 4-4h24a4 4 0 0 1 4 4v30.135C55.475 56.428 51 63.192 51 71v6H34a4 4 0 0 1-4-4zm21-1a1 1 0 0 0-1-1h-8a1 1 0 1 0 0 2h8a1 1 0 0 0 1-1" clip-rule="evenodd"/>
  <path fill="#c18010" d="M55.6 43c0 4.596-3.23 8.438-7.543 9.38a54 54 0 0 1-.419-.949c-.32.1-.775.146-1.102.158-.248 0-.449-.012-.554-.157-.432.369-1.166.822-1.67 1.02a10 10 0 0 1-.695-.15c-.406-.696-.711-2.582-.393-3.022.082-.117.234-.175.42-.193-.175.718.233 2.49.46 2.671.222.175 1.81-.77 1.74-.991a3.3 3.3 0 0 1-.123-1.149c.065-.087.261-.221.396-.28q-.02.095-.012.216c0 .274.035.746.105.95.093.251.192.414.635.409.45-.006 1.172-.105 1.283-.304.11-.198-.035-1.003-.128-1.26l-.053-.122a.1.1 0 0 0-.017-.029h.156c.233.053.433.152.491 1.226 0 .216 1.51.629 1.784.512.024-.012.035-.023.041-.035.129-.659.053-2.298-.53-2.991-.117-.14-1.312.618-2.03 1.154-.151-.163-.42-.256-.927-.175l-.133.024-.088.017c-.251-.816-.397-1.533-.338-2-.56-.297-.933-.641-1.003-.776-.123-.221.081-.326.186-.268a.1.1 0 0 0 .035.018c.59.32 1.534.67 2.817.734q.228.01.466.012c2.07-.017 3.277-.822 3.067-1.224-.099-.187-.529-.14-1.172-.068-.72.08-1.708.19-2.799.033-1.528-.222-1.68-.922-1.487-1.219.294-.45.845-.426 1.633-.392.417.019.9.04 1.446-.005 1.58-.128 2.478-.57 2.974-1.136.262-.298.379-.619.28-.811-.094-.17-.356-.233-1.102.052a9.6 9.6 0 0 1-2.344.578c.18-1.16-.362-5.365-3.33-6a.1.1 0 0 1-.035-.024c-.904-1.154-2.74-1.679-4.49-1.446q-.015.001-.023.012c-.052.023-.052.122.006.146.198.07.431.175.606.332-.25.134-.618.356-.822.642-.011.011-.011.023-.011.035 0 .035.029.064.07.058.85-.17 1.72-.088 2.233.379.035.029.017.081-.03.093-4.443 1.207-3.562 5.073-2.378 9.813a204 204 0 0 0 1.437 5.477A9.6 9.6 0 0 1 36.4 43a9.6 9.6 0 0 1 19.2 0"/>
  <path fill="#c18010" d="m48.438 38.972.023.01c.04.018.087-.029.058-.064-.134-.18-.332-.35-.752-.35s-.677.146-.793.333c-.024.046.046.093.093.07a1.36 1.36 0 0 1 .7-.158c.327.006.518.09.671.16"/>
  <path fill="#c18010" fill-rule="evenodd" d="M48.122 41.484a.647.647 0 1 0 0-1.294.65.65 0 0 0-.653.647.65.65 0 0 0 .653.647m.292-.694a.17.17 0 1 0 0-.338.17.17 0 0 0 0 .338m-4.606.496a.757.757 0 0 0-.759-.758.753.753 0 0 0-.758.758.757.757 0 1 0 1.516 0m-.42-.059c.11 0 .198-.087.198-.198a.197.197 0 0 0-.198-.198.197.197 0 0 0-.199.198c0 .11.088.198.199.198" clip-rule="evenodd"/>
  <path fill="#c18010" d="M41.638 39.618c.082-.122.21-.309.618-.478.409-.17.73-.146.95-.093.047.011.082-.041.042-.07-.175-.146-.566-.321-1.079-.129-.455.17-.67.525-.67.758 0 .053.11.059.14.012"/>
  <path fill="#c18010" fill-rule="evenodd" d="M58 43c0 6.63-5.37 12-12 12s-12-5.37-12-12 5.37-12 12-12 12 5.37 12 12M46 53.8c5.965 0 10.8-4.835 10.8-10.8S51.965 32.2 46 32.2 35.2 37.035 35.2 43 40.035 53.8 46 53.8" clip-rule="evenodd"/>
  <path fill="#557ff3" d="M71 87c8.837 0 16-7.163 16-16s-7.163-16-16-16-16 7.163-16 16 7.163 16 16 16"/>
  <path fill="#ccc" d="M92.502 59c.297 0 .594.12.822.354.454.468.454 1.23 0 1.698l-2.333 2.4a1.145 1.145 0 0 1-1.65 0 1.227 1.227 0 0 1 0-1.698l2.333-2.4c.227-.234.524-.354.822-.354zm-1.167 10.798h3.499c.641 0 1.166.54 1.166 1.2s-.525 1.2-1.166 1.2h-3.499c-.641 0-1.166-.54-1.166-1.2s.525-1.2 1.166-1.2m-1.982 8.754c.227-.234.525-.354.822-.354h.006c.297 0 .595.12.822.354l2.332 2.4c.455.467.455 1.23 0 1.697a1.145 1.145 0 0 1-1.65 0l-2.332-2.4a1.227 1.227 0 0 1 0-1.697"/>
  <circle cx="75.5" cy="76.5" r="4.5" fill="#fff"/>
  <circle cx="66.5" cy="65.5" r="4.5" fill="#fff"/>
  <path stroke="#fff" stroke-linecap="round" stroke-width="3" d="M69.5 65.5h10m-7 11h-10"/>
</svg>
