<svg width="16" height="16" viewBox="0 0 16 16" fill="none" xmlns="http://www.w3.org/2000/svg">
<g clip-path="url(#clip0_145_2665)">
<path d="M14.75 7.12503C14.75 9.49689 13.1054 11.6393 10.5881 12.5518L10.5397 12.5694L10.4929 12.5909C9.68293 12.9625 8.16901 13.3763 6.42883 13.7642C5.30911 14.0138 4.14548 14.2419 3.1051 14.4334L3.40222 14.0907C4.18337 13.19 3.95633 11.9225 3.18689 11.2408C1.96753 10.1604 1.25 8.70239 1.25 7.12503C1.25001 4.01256 4.13202 1.25003 8 1.25003V3.24249e-05L7.89661 0.000642776C3.56038 0.0495577 0.0555134 3.17104 0.000610352 7.03299L0 7.12503C0 9.06839 0.873547 10.8301 2.29004 12.1155L2.35791 12.1763C2.66711 12.4503 2.73332 12.9192 2.48315 13.2411L2.45789 13.2718L1.16431 14.7635C0.722686 15.2727 1.15027 16.0468 1.81458 15.9326C4.46985 15.4766 9.12259 14.5948 11.0142 13.727C13.9385 12.6669 16 10.1104 16 7.12503L15.9994 7.03299C15.9441 3.14039 12.3838 3.24249e-05 8 3.24249e-05V1.25003C11.868 1.25003 14.75 4.01256 14.75 7.12503Z" fill="black" fill-opacity="0.84"/>
</g>
<defs>
<clipPath id="clip0_145_2665">
<rect width="16" height="16" fill="white"/>
</clipPath>
</defs>
</svg>
