<svg fill="none" viewBox="0 0 16 16" xmlns="http://www.w3.org/2000/svg">
  <g clip-path="url(#Multiple-Accounts-16_svg__a)">
    <path fill="#000" d="M6 8c3.32 0 6 2.721 6 6.063q0 .316-.032.625l-.057.562H4.5a4.63 4.63 0 0 1-4.169-2.62l-.109-.226.078-.238.038-.113C1.158 9.697 3.378 8 6 8m4.27 0c2.62 0 4.842 1.697 5.661 4.053l.038.113.078.238-.109.226a4.64 4.64 0 0 1-2.024 2.093c-.325.17-.675-.114-.666-.481a8 8 0 0 0-.009-.578 3.4 3.4 0 0 0 1.455-1.354 4.79 4.79 0 0 0-3.069-2.861 7.3 7.3 0 0 0-1.565-1.445Q10.165 8 10.27 8M6 9.25c-2.009 0-3.732 1.265-4.425 3.06A3.37 3.37 0 0 0 4.5 14h6.25C10.715 11.364 8.595 9.25 6 9.25M6 1a3.5 3.5 0 1 1 0 7 3.5 3.5 0 0 1 0-7m4.625.056a3.501 3.501 0 0 1-.57 6.943 7 7 0 0 0-.523-.324q.384-.425.656-.933a2.25 2.25 0 0 0 0-4.484 5 5 0 0 0-.284-.464c-.23-.33-.072-.813.33-.786q.196.012.391.048M6 2.25a2.25 2.25 0 1 0 0 4.5 2.25 2.25 0 0 0 0-4.5"/>
  </g>
  <defs>
    <clipPath id="Multiple-Accounts-16_svg__a">
      <path fill="#fff" d="M0 0h16v16H0z"/>
    </clipPath>
  </defs>
</svg>
