<svg fill="none" viewBox="0 0 160 88" xmlns="http://www.w3.org/2000/svg">
  <path fill="#ccdaff" d="M0 24C0 10.745 10.745 0 24 0h112c13.255 0 24 10.745 24 24v40c0 13.255-10.745 24-24 24H24C10.745 88 0 77.255 0 64z"/>
  <path fill="#fff" d="M8 38a8 8 0 0 1 8-8h128a8 8 0 0 1 8 8v12a8 8 0 0 1-8 8H16a8 8 0 0 1-8-8z"/>
  <path fill="#3969ef" d="M150 38a6 6 0 0 0-6-6H16a6 6 0 0 0-6 6v12a6 6 0 0 0 6 6h128a6 6 0 0 0 6-6zm4 12c0 5.523-4.477 10-10 10H16c-5.523 0-10-4.477-10-10V38c0-5.523 4.477-10 10-10h128c5.523 0 10 4.477 10 10z"/>
  <path fill="#3969ef" d="M21.25 38a5.25 5.25 0 0 1 4.049 8.592l2.555 2.555.064.078a.5.5 0 0 1-.693.693l-.079-.065-2.554-2.554A5.25 5.25 0 1 1 21.25 38m0 1a4.25 4.25 0 1 0 0 8.5 4.25 4.25 0 0 0 0-8.5"/>
</svg>
