<svg fill="none" viewBox="0 0 128 96" xmlns="http://www.w3.org/2000/svg">
  <path fill="#888" d="m105.629 38.2 1.542-.4a.88.88 0 0 0 .629-.629l.4-1.543A.84.84 0 0 1 109 35c.4 0 .743.286.8.628l.4 1.543a.88.88 0 0 0 .629.629l1.542.4c.4.114.629.457.629.8 0 .4-.286.743-.629.8l-1.542.4a.88.88 0 0 0-.629.628l-.4 1.543a.84.84 0 0 1-.8.629c-.4 0-.743-.286-.8-.629l-.4-1.543a.88.88 0 0 0-.629-.628l-1.542-.4A.84.84 0 0 1 105 39c0-.4.286-.743.629-.8m-89.686-6.4 2.314-.6c.429-.086.857-.514.943-.943l.6-2.314c.171-.6.686-.943 1.2-.943.6 0 1.114.428 1.2.943l.6 2.314c.086.429.514.857.943.943l2.314.6c.6.171.943.686.943 1.2 0 .6-.429 1.114-.943 1.2l-2.314.6c-.429.086-.857.514-.943.943l-.6 2.314c-.171.6-.686.943-1.2.943-.6 0-1.114-.429-1.2-.943l-.6-2.314c-.086-.429-.514-.857-.943-.943l-2.314-.6c-.6-.172-.943-.686-.943-1.2 0-.6.429-1.114.943-1.2M.629 53.2l1.542-.4a.88.88 0 0 0 .629-.629l.4-1.543A.84.84 0 0 1 4 50c.4 0 .743.286.8.628l.4 1.543a.88.88 0 0 0 .629.629l1.542.4c.4.114.629.457.629.8 0 .4-.286.743-.629.8l-1.542.4a.88.88 0 0 0-.629.628l-.4 1.543A.84.84 0 0 1 4 58c-.4 0-.743-.286-.8-.629l-.4-1.543a.88.88 0 0 0-.629-.628L.63 54.8A.84.84 0 0 1 0 54c0-.4.286-.743.629-.8M126.5 52c-.825 0-1.5-.675-1.5-1.5s.675-1.5 1.5-1.5 1.5.675 1.5 1.5-.675 1.5-1.5 1.5M23 70c-1.1 0-2-.9-2-2s.9-2 2-2 2 .9 2 2-.9 2-2 2" opacity=".2"/>
  <path fill="#399f29" d="M77 16H51c-10.493 0-19 8.507-19 19v26c0 10.493 8.507 19 19 19h12a4 4 0 0 0 4-4H51c-8.284 0-15-6.716-15-15V35c0-8.284 6.716-15 15-15h26c8.284 0 15 6.716 15 15v16a4 4 0 0 0 4-4V35c0-10.493-8.507-19-19-19"/>
  <path fill="#b3f1aa" d="M46.667 20C40.776 20 36 24.776 36 30.667v30.666C36 67.224 40.776 72 46.667 72H67v-1c0-11.046 8.954-20 20-20h1V30.667C88 24.776 83.224 20 77.333 20z"/>
  <path fill="#4cba3c" d="M77.333 16H46.667C38.567 16 32 22.567 32 30.667v30.666C32 69.433 38.566 76 46.667 76H67v-4H46.667C40.776 72 36 67.224 36 61.333V30.667C36 24.776 40.776 20 46.667 20h30.666C83.224 20 88 24.776 88 30.667V51h4V30.667C92 22.567 85.433 16 77.333 16"/>
  <path fill="#4cba3c" d="M67.587 25h-.997a.49.49 0 0 0-.492.492v13.874c0 .272.22.492.492.492h.996c.272 0 .493-.22.493-.492V25.492a.49.49 0 0 0-.492-.492m14.858 15.849h.99l.007.006a.49.49 0 0 1 .492.492v2.972a2.474 2.474 0 0 1-2.474 2.473h-7.924a2.474 2.474 0 0 1-2.474-2.473v-2.972c0-.276.217-.498.493-.498h.99c.27 0 .493.222.493.498v2.473c0 .547.444.99.99.99h6.934a.99.99 0 0 0 .99-.99v-2.479a.49.49 0 0 1 .493-.492m-31.703 0h-.991a.49.49 0 0 0-.492.498v2.473c0 .547-.445.99-.99.99h-1.484a.49.49 0 0 0-.492.493v.99c0 .277.222.5.492.5h1.981a2.474 2.474 0 0 0 2.474-2.474v-2.972a.497.497 0 0 0-.498-.498m10.403 15.848a.99.99 0 0 0-.99.99v6.929c0 .546.444.99.99.99H65.6c.276 0 .498.222.498.499v.99c0 .27-.222.492-.498.492h-4.953a2.474 2.474 0 0 1-2.474-2.473v-7.925a2.474 2.474 0 0 1 2.474-2.473h5.943a.49.49 0 0 1 .492.492v.991a.49.49 0 0 1-.492.498z"/>
  <path fill="#4cba3c" d="M41.334 47.783a3.96 3.96 0 0 0 3.962 3.962H66.59a.49.49 0 0 0 .492-.498v-.991a.49.49 0 0 0-.492-.492H45.296a1.983 1.983 0 0 1-1.981-1.981v-6.436a.496.496 0 0 0-.493-.498h-.99a.49.49 0 0 0-.492.498v6.436zm29.716 5.942a3.96 3.96 0 0 1 3.963-3.962h7.426a.49.49 0 0 1 .492.492v.991a.5.5 0 0 1-.03.175q-.672.139-1.325.323h-6.57a1.983 1.983 0 0 0-1.98 1.981v2.967a20 20 0 0 0-1.976 2.24zM60.154 36.886h2.473a.49.49 0 0 0 .492-.499v-.99a.5.5 0 0 0-.492-.498h-2.473a3.96 3.96 0 0 0-3.963 3.962v3.962a3.96 3.96 0 0 0 3.963 3.962h6.435a.49.49 0 0 0 .493-.498v-.99a.5.5 0 0 0-.493-.499h-6.441a1.983 1.983 0 0 1-1.982-1.981v-3.962c0-1.093.889-1.981 1.982-1.981zM48.766 28.96h-1.987c-.82 0-1.483.665-1.483 1.483v1.988c0 .819.664 1.483 1.483 1.483h1.987c.819 0 1.483-.664 1.483-1.483v-1.987c0-.82-.664-1.483-1.483-1.483"/>
  <path fill="#4cba3c" fill-rule="evenodd" d="M46.388 25h2.768a5.055 5.055 0 0 1 5.055 5.055v2.767a5.055 5.055 0 0 1-5.055 5.055h-2.768a5.055 5.055 0 0 1-5.054-5.055v-2.767A5.055 5.055 0 0 1 46.388 25m-.108 10.896h2.978a2.964 2.964 0 0 0 2.966-2.965v-2.978a2.964 2.964 0 0 0-2.966-2.966H46.28a2.964 2.964 0 0 0-2.965 2.966v2.978a2.964 2.964 0 0 0 2.965 2.965" clip-rule="evenodd"/>
  <path fill="#4cba3c" d="M48.76 58.68h-1.975a1.49 1.49 0 0 0-1.49 1.489v1.975c0 .822.667 1.488 1.49 1.488h1.975c.822 0 1.489-.666 1.489-1.488v-1.975a1.49 1.49 0 0 0-1.49-1.49"/>
  <path fill="#4cba3c" fill-rule="evenodd" d="M49.156 54.716h-2.768a5.055 5.055 0 0 0-5.054 5.055v2.767a5.055 5.055 0 0 0 5.054 5.055h2.768a5.055 5.055 0 0 0 5.055-5.055v-2.767a5.055 5.055 0 0 0-5.055-5.055m.102 10.896H46.28a2.964 2.964 0 0 1-2.965-2.965v-2.978a2.964 2.964 0 0 1 2.965-2.966h2.978a2.964 2.964 0 0 1 2.966 2.966v2.978a2.964 2.964 0 0 1-2.966 2.965" clip-rule="evenodd"/>
  <path fill="#4cba3c" d="M76.495 28.96h1.987c.82 0 1.483.665 1.483 1.483v1.988c0 .819-.664 1.483-1.483 1.483h-1.987a1.483 1.483 0 0 1-1.483-1.483v-1.987c0-.82.664-1.483 1.483-1.483"/>
  <path fill="#4cba3c" fill-rule="evenodd" d="M76.105 25h2.768a5.055 5.055 0 0 1 5.055 5.055v2.767a5.055 5.055 0 0 1-5.055 5.055h-2.768a5.055 5.055 0 0 1-5.055-5.055v-2.767A5.055 5.055 0 0 1 76.105 25m-.108 10.896h2.978a2.964 2.964 0 0 0 2.965-2.966v-2.977a2.964 2.964 0 0 0-2.965-2.966h-2.978a2.964 2.964 0 0 0-2.966 2.966v2.977a2.964 2.964 0 0 0 2.966 2.966" clip-rule="evenodd"/>
  <path fill="#4cba3c" d="M63.126 29.951a.99.99 0 1 0-1.981 0 .99.99 0 0 0 1.98 0m-3.961-3.961a.99.99 0 1 0-1.981 0 .99.99 0 0 0 1.98 0"/>
  <path fill="#557ff3" d="M87 87c8.837 0 16-7.163 16-16s-7.163-16-16-16-16 7.163-16 16 7.163 16 16 16"/>
  <path fill="#fff" fill-rule="evenodd" d="M89 62a1 1 0 0 1 1 1v8.978a.5.5 0 0 0 .807.394l2.89-2.247a1 1 0 0 1 1.414.19l1.8 2.399a1 1 0 0 1-.187 1.39l-8.271 6.43a2.5 2.5 0 0 1-2.906 0l-8.271-6.43a1 1 0 0 1-.186-1.39l1.8-2.4a1 1 0 0 1 1.413-.19l2.89 2.248a.5.5 0 0 0 .807-.394V63a1 1 0 0 1 1-1z" clip-rule="evenodd"/>
  <path fill="#ccc" d="M108.501 59c.298 0 .595.12.823.354.454.468.454 1.23 0 1.698l-2.333 2.4a1.145 1.145 0 0 1-1.65 0 1.226 1.226 0 0 1 0-1.698l2.332-2.4c.228-.234.525-.354.823-.354zm-1.166 10.798h3.499c.641 0 1.166.54 1.166 1.2s-.525 1.2-1.166 1.2h-3.499c-.641 0-1.166-.54-1.166-1.2s.525-1.2 1.166-1.2m-1.982 8.754c.227-.234.525-.354.822-.354h.006c.297 0 .595.12.822.354l2.333 2.4c.454.467.454 1.23 0 1.697a1.146 1.146 0 0 1-1.651 0l-2.332-2.4a1.226 1.226 0 0 1 0-1.697"/>
</svg>
