<svg width="24" height="24" viewBox="0 0 24 24" fill="none" xmlns="http://www.w3.org/2000/svg">
<path d="M10.75 14.7499V19.5C10.75 19.8013 10.7858 20.0943 10.8529 20.375H4.36728C2.98809 20.375 2.15098 18.8539 2.88888 17.6887L4.60275 14.9824C4.69442 14.8377 4.8539 14.7499 5.02524 14.7499H10.75Z" fill="#ADC2FC"/>
<path d="M16.375 3.625C18.0319 3.625 19.375 4.96815 19.375 6.625V10.75H14.5C12.4289 10.75 10.75 12.4289 10.75 14.5V14.75H4.625V6.625C4.625 4.96815 5.96815 3.625 7.625 3.625H16.375Z" fill="#8FABF9"/>
<path d="M16.375 3.625C18.0319 3.625 19.375 4.96815 19.375 6.625V10.75H18V6.625C18 5.72754 17.2725 5 16.375 5H7.625C6.72754 5 6 5.72754 6 6.625V13.25H10.9636C10.8254 13.641 10.75 14.0617 10.75 14.5V14.625H4.625V6.625C4.625 4.99402 5.92652 3.66703 7.54761 3.62598L7.625 3.625H16.375Z" fill="#CCDAFF"/>
<path d="M16.3752 3C18.3772 3 20.0002 4.62297 20.0002 6.625V10.7832C19.8366 10.7614 19.6697 10.75 19.5002 10.75H18.7502V6.625C18.7502 5.31332 17.6868 4.25 16.3752 4.25H7.62515C6.31349 4.25002 5.25015 5.31334 5.25015 6.625V14H10.7835C10.7617 14.1636 10.7502 14.3305 10.7502 14.5V15.375H4.91434L3.36563 18.0635C2.93363 18.8134 3.47489 19.7499 4.34036 19.75H10.7587C10.7878 20.192 10.8934 20.613 11.0625 21H4.34036C2.51315 20.9999 1.3704 19.0228 2.2825 17.4395L3.93936 14.5634C3.95816 14.5307 3.97847 14.4992 4.00015 14.469V6.625C4.00015 4.62298 5.62314 3.00002 7.62515 3H16.3752ZM10.7502 17.9999L6.62515 18C6.27999 18 6.00015 17.7202 6.00015 17.375C6.00015 17.0298 6.27999 16.75 6.62515 16.75L10.7502 16.7499V17.9999Z" fill="url(#paint0_linear_1053_2760)"/>
<path d="M12 14.5C12 13.1193 13.1193 12 14.5 12H19.5C20.8807 12 22 13.1193 22 14.5V19.5C22 20.8807 20.8807 22 19.5 22H14.5C13.1193 22 12 20.8807 12 19.5V14.5Z" fill="#E46F4F"/>
<path d="M19.5 20.75V22H14.5V20.75H19.5ZM20.75 19.5V14.5C20.75 13.8096 20.1904 13.25 19.5 13.25H14.5C13.8096 13.25 13.25 13.8096 13.25 14.5V19.5C13.25 20.1904 13.8096 20.75 14.5 20.75V22C13.1193 22 12 20.8807 12 19.5V14.5C12 13.1409 13.0846 12.0351 14.4354 12.0009L14.5 12H19.5L19.5646 12.0009C20.9154 12.0351 22 13.1409 22 14.5V19.5L21.9991 19.5646C21.9649 20.9154 20.8591 22 19.5 22V20.75C20.1904 20.75 20.75 20.1904 20.75 19.5Z" fill="url(#paint1_linear_1053_2760)"/>
<path d="M17 13C19.2091 13 21 14.7909 21 17C21 19.2091 19.2091 21 17 21C14.7909 21 13 19.2091 13 17C13 14.7909 14.7909 13 17 13ZM17 13.548C15.0935 13.548 13.548 15.0935 13.548 17C13.548 18.4196 14.405 19.6389 15.6298 20.1692C15.2603 18.771 13.7932 14.8624 15.9955 14.5847C16.0104 14.5803 15.685 14.4793 15.2467 14.5889C14.6988 14.6985 15.779 13.0969 16.9139 14.501C18.1472 14.7706 18.2355 16.7558 18.0935 16.8462L18.0934 16.8463C18.0654 16.8642 17.9755 16.8538 17.8572 16.8403C16.8082 16.6559 16.706 17.2545 17.2114 18.1658C16.7869 18.2923 17.2207 19.4371 17.6371 20.3932C19.2392 20.0943 20.452 18.6889 20.452 17C20.452 15.0935 18.9065 13.548 17 13.548Z" fill="white"/>
<path d="M18.5164 19.8914C18.5042 19.9701 18.4771 20.0226 18.4289 20.0299C18.3373 20.0439 17.9279 19.9502 17.6952 19.8617C17.6687 19.9834 17.0449 20.0987 16.9462 19.9352C16.7198 20.1308 16.2862 20.4147 16.1955 20.3552C16.0219 20.2415 15.8585 19.3661 15.9892 19.1811C16.1878 19.0007 16.6051 19.197 16.8979 19.3007C16.9972 19.1329 17.4779 19.0692 17.5777 19.207C17.8406 19.0071 18.2794 18.7252 18.3222 18.7767C18.5355 19.0337 18.5625 19.6454 18.5163 19.8916L18.5164 19.8914Z" fill="#4CBA3C"/>
<path fill-rule="evenodd" clip-rule="evenodd" d="M16.2918 17.2495C16.3813 16.6146 17.5807 16.8132 18.1171 16.7419C18.508 16.6966 18.798 16.6004 18.9913 16.5254C19.4349 16.3432 19.5104 16.524 19.2935 16.8078C18.6811 17.5339 17.319 17.0054 17.0751 17.3809C17.0038 17.4921 17.059 17.7539 17.6192 17.8364C18.3762 17.9476 18.9981 17.7023 19.0749 17.8506C18.9023 18.6431 16.0282 18.3732 16.2914 17.2497L16.2918 17.2495Z" fill="#FFCC33"/>
<path d="M17.8231 15.4175C17.7437 15.2456 17.3358 15.2468 17.2579 15.4109C17.2508 15.4447 17.2791 15.4358 17.3333 15.4188C17.4281 15.3889 17.6019 15.3342 17.8021 15.4413C17.8179 15.4481 17.8332 15.4317 17.8231 15.4175Z" fill="#14307E"/>
<path d="M15.8299 15.4588C15.7541 15.4533 15.6312 15.4445 15.5296 15.5009C15.3805 15.5644 15.3324 15.6327 15.3036 15.6796C15.2929 15.6969 15.2517 15.6952 15.2517 15.6747C15.2618 15.4012 15.7256 15.2694 15.8942 15.4393C15.9147 15.4649 15.8846 15.4627 15.8299 15.4588Z" fill="#14307E"/>
<path d="M17.6778 16.3756C17.3657 16.374 17.3657 15.893 17.6778 15.8914C17.9899 15.893 17.9899 16.374 17.6778 16.3756Z" fill="#14307E"/>
<path d="M16.0964 16.301C16.0902 16.6721 15.5463 16.6721 15.5401 16.301C15.5419 15.9317 16.0947 15.9318 16.0964 16.301Z" fill="#14307E"/>
<defs>
<linearGradient id="paint0_linear_1053_2760" x1="10.981" y1="3" x2="10.981" y2="21" gradientUnits="userSpaceOnUse">
<stop stop-color="#557FF3"/>
<stop offset="1" stop-color="#2B55CA"/>
</linearGradient>
<linearGradient id="paint1_linear_1053_2760" x1="17" y1="12" x2="17" y2="22" gradientUnits="userSpaceOnUse">
<stop stop-color="#DE5833"/>
<stop offset="1" stop-color="#9A3216"/>
</linearGradient>
</defs>
</svg>
