<svg width="42" height="42" viewBox="0 0 42 42" fill="none" xmlns="http://www.w3.org/2000/svg">
<path d="M20.658 38.0898C23.9876 38.0898 30.6801 35.4756 34.2497 29.6157C37.1836 24.8021 37.6037 19.6382 37.3392 16.0068C36.9836 11.1083 34.9054 10.3633 31.4269 9.2324C28.7152 8.35131 26.6681 7.12893 25.3768 5.85748C23.9542 4.45666 22.2939 3.91016 20.658 3.91016C19.0221 3.91016 17.3618 4.45666 15.9393 5.85748C14.6479 7.12893 12.5986 8.35131 9.88912 9.2324C6.41062 10.3633 4.33241 11.1106 3.97678 16.0068C3.71229 19.636 4.13459 24.8021 7.06631 29.6157C10.6359 35.4733 17.3284 38.0898 20.658 38.0898Z" fill="#589D88"/>
<path d="M20.6586 3.1604C22.4734 3.16055 24.3287 3.7724 25.9035 5.32324C27.0917 6.49295 29.0276 7.66455 31.6589 8.51953C33.3586 9.07214 34.9249 9.58469 36.0688 10.6611C37.2578 11.7804 37.9025 13.4062 38.0873 15.9529C38.3588 19.6807 37.9318 25.0166 34.8903 30.0066C33.0236 33.0708 30.3492 35.2729 27.7236 36.7083C25.1112 38.1363 22.4821 38.8402 20.6586 38.8403C18.8351 38.8403 16.2054 38.1358 13.593 36.7075C10.9674 35.272 8.29299 33.0696 6.42621 30.0066V30.0059C3.38719 25.0159 2.95769 19.678 3.22919 15.9521C3.41418 13.4063 4.05924 11.7813 5.24848 10.6619C6.3924 9.58517 7.95764 9.07224 9.65766 8.51953C12.2871 7.66441 14.225 6.49289 15.413 5.32324C16.9881 3.77224 18.8437 3.1604 20.6586 3.1604ZM20.6586 4.6604C19.2018 4.6604 17.7355 5.14125 16.4655 6.39185C15.0709 7.76496 12.9103 9.03855 10.1213 9.94556C8.34292 10.5237 7.12976 10.9503 6.27607 11.7539C5.4678 12.5148 4.89549 13.7113 4.7248 16.0613C4.46738 19.5938 4.88301 24.5887 7.70722 29.2258L7.86908 29.4851C9.5636 32.146 11.9434 34.0962 14.3122 35.3914C16.7705 36.7354 19.1528 37.3403 20.6586 37.3403C22.1647 37.3402 24.5463 36.7358 27.0043 35.3921C29.4495 34.0554 31.9066 32.021 33.6093 29.2258L33.8679 28.79C36.4612 24.2783 36.8411 19.4858 36.5917 16.0613C36.4211 13.7103 35.8485 12.5137 35.0405 11.7532C34.1869 10.9499 32.9737 10.5238 31.1953 9.94556V9.94629C28.4038 9.03926 26.2456 7.76477 24.851 6.39185C23.5812 5.14144 22.1152 4.66054 20.6586 4.6604ZM20.9531 6.03296C21.155 6.02058 21.3535 6.0874 21.5024 6.21899C21.6514 6.35072 21.739 6.53669 21.7477 6.73535C21.7673 7.1825 21.7855 7.63302 21.8019 8.08081C22.0674 16.1554 22.0127 24.2077 21.4269 32.2698C21.3878 32.7053 21.3441 33.1722 21.2783 33.616C21.2671 33.6882 21.2266 33.7541 21.1677 33.7983C21.1086 33.8424 21.0349 33.8622 20.9626 33.8525C20.8902 33.8428 20.8241 33.8045 20.7788 33.7463C20.7335 33.6881 20.7119 33.6139 20.7202 33.5413C20.7672 33.1218 20.7961 32.6568 20.819 32.2266C21.1211 24.207 20.8947 16.1571 20.351 8.15918C20.3192 7.71566 20.2856 7.27004 20.2507 6.82764C20.235 6.62945 20.2992 6.43387 20.4309 6.28491C20.5624 6.13609 20.7512 6.04548 20.9531 6.03296Z" fill="#11604D"/>
</svg>
