<svg fill="none" viewBox="0 0 96 96" xmlns="http://www.w3.org/2000/svg">
  <path fill="url(#Fire-Tab-Dark-96_svg__a)" d="M42.23 18c6.227 3.52 6.627 9.4 8.397 15 .3.949 1.915 5 7.313 5 4.798 0 6.782-2.729 7.382-4s.9-3.999 1.2-3.771S77 39.865 77 56.136C77 68.339 65.022 76 48.527 76s-30.59-7.661-30.59-19.864c0-16.271 16.195-20.34 24.293-38.136"/>
  <path fill="url(#Fire-Tab-Dark-96_svg__b)" d="M76.063 56.136c0-11.093-6.009-18.815-9.38-22.277a8 8 0 0 1-.364.983C65.49 36.63 62.933 40 57.25 40c-3.23 0-5.461-1.26-6.908-2.752a9.4 9.4 0 0 1-2.189-3.654c-.45-1.447-.821-2.945-1.183-4.283-.372-1.375-.75-2.644-1.239-3.826-.706-1.706-1.643-3.222-3.136-4.5-4.11 8.032-9.771 13.276-14.25 18.027-4.904 5.202-8.407 9.797-8.407 17.124l.004.383c.224 8.03 7.467 15.262 18.177 18.178A37.7 37.7 0 0 0 48 76c3.453 0 6.788-.46 9.88-1.303 10.881-2.963 18.182-10.378 18.182-18.561m4 0c0 10.757-9.386 19.222-21.131 22.42A41.7 41.7 0 0 1 48 80c-3.807 0-7.495-.508-10.932-1.443-11.745-3.2-21.13-11.664-21.13-22.421 0-8.945 4.454-14.52 9.497-19.868 5.076-5.385 10.742-10.57 14.55-19.084l.096-.188a2 2 0 0 1 2.727-.73c3.527 2.029 5.412 4.771 6.62 7.69.591 1.427 1.021 2.899 1.403 4.31.392 1.45.722 2.787 1.143 4.14a5.44 5.44 0 0 0 1.24 2.058c.746.77 1.962 1.536 4.036 1.536 3.748 0 5.09-2.088 5.44-2.842.184-.395.358-1.14.564-2.048.085-.375.189-.832.3-1.178.043-.135.151-.468.361-.779.09-.134.379-.54.934-.775a2.05 2.05 0 0 1 2.054.266l.007.004c.377.293 13.153 10.222 13.153 27.488"/>
  <path fill="#222" d="M34 47.6c0-3.36 0-5.04.654-6.324a6 6 0 0 1 2.622-2.622C38.56 38 40.24 38 43.6 38h16.8c3.36 0 5.04 0 6.324.654a6 6 0 0 1 2.622 2.622C70 42.56 70 44.24 70 47.6v22.8c0 3.36 0 5.04-.654 6.324a6 6 0 0 1-2.622 2.622C65.44 80 63.76 80 60.4 80H43.6c-3.36 0-5.04 0-6.324-.654a6 6 0 0 1-2.622-2.622C34 75.44 34 73.76 34 70.4z"/>
  <path fill="#444" d="M28 47.6c0-3.36 0-5.04.654-6.324a6 6 0 0 1 2.622-2.622C32.56 38 34.24 38 37.6 38h18.8c3.36 0 5.04 0 6.324.654a6 6 0 0 1 2.622 2.622C66 42.56 66 44.24 66 47.6v22.8c0 3.36 0 5.04-.654 6.324a6 6 0 0 1-2.622 2.622C61.44 80 59.76 80 56.4 80H37.6c-3.36 0-5.04 0-6.324-.654a6 6 0 0 1-2.622-2.622C28 75.44 28 73.76 28 70.4z"/>
  <path fill="#666" d="M32 46a4 4 0 0 1 4-4h22a4 4 0 0 1 0 8H36a4 4 0 0 1-4-4m0 13.4c0-2.24 0-3.36.436-4.216a4 4 0 0 1 1.748-1.748C35.04 53 36.16 53 38.4 53h17.2c2.24 0 3.36 0 4.216.436a4 4 0 0 1 1.748 1.748C62 56.04 62 57.16 62 59.4v10.2c0 2.24 0 3.36-.436 4.216a4 4 0 0 1-1.748 1.748C58.96 76 57.84 76 55.6 76H38.4c-2.24 0-3.36 0-4.216-.436a4 4 0 0 1-1.748-1.748C32 72.96 32 71.84 32 69.6z"/>
  <path fill="#999" d="M34 46a2 2 0 1 1 4 0 2 2 0 0 1-4 0"/>
  <defs>
    <linearGradient id="Fire-Tab-Dark-96_svg__a" x1="47.782" x2="52.793" y1="29.6" y2="71.206" gradientUnits="userSpaceOnUse">
      <stop stop-color="#fa8b38"/>
      <stop offset=".52" stop-color="#e72a57"/>
      <stop offset="1" stop-color="#cc165b"/>
    </linearGradient>
    <linearGradient id="Fire-Tab-Dark-96_svg__b" x1="48" x2="48" y1="18" y2="78" gradientUnits="userSpaceOnUse">
      <stop stop-color="#ff862d"/>
      <stop offset="1" stop-color="#b40b4a"/>
    </linearGradient>
  </defs>
</svg>
