<svg width="24" height="24" viewBox="0 0 24 24" fill="none" xmlns="http://www.w3.org/2000/svg">
<g clip-path="url(#clip0_4858_37157)">
<path d="M12 1.25C17.9371 1.25 22.75 6.06294 22.75 12C22.75 17.9371 17.9371 22.75 12 22.75C11.5803 22.75 11.1664 22.725 10.7595 22.6773C10.1749 22.6088 9.8398 22.0068 9.87687 21.4195C9.97788 19.8188 9.30326 17.9892 7.91309 16.5127C6.38816 14.8932 4.38736 14.1078 2.67277 14.2813C2.06778 14.3425 1.42442 14.0213 1.34411 13.4185C1.28228 12.9544 1.25 12.481 1.25 12C1.25 6.06294 6.06294 1.25 12 1.25Z" fill="#FFC95C"/>
<path d="M13 17C13.5523 17 14 17.4477 14 18C14 18.5523 13.5523 19 13 19C12.4477 19 12 18.5523 12 18C12 17.4477 12.4477 17 13 17Z" fill="#B66A1F"/>
<path d="M18 14C18.5523 14 19 14.4477 19 15C19 15.5523 18.5523 16 18 16C17.4477 16 17 15.5523 17 15C17 14.4477 17.4477 14 18 14Z" fill="#B66A1F"/>
<path d="M12 11C12.5523 11 13 11.4477 13 12C13 12.5523 12.5523 13 12 13C11.4477 13 11 12.5523 11 12C11 11.4477 11.4477 11 12 11Z" fill="#B66A1F"/>
<path d="M7 8C7.55228 8 8 8.44772 8 9C8 9.55229 7.55228 10 7 10C6.44772 10 6 9.55229 6 9C6 8.44772 6.44772 8 7 8Z" fill="#B66A1F"/>
<path d="M18 8C18.5523 8 19 8.44772 19 9C19 9.55229 18.5523 10 18 10C17.4477 10 17 9.55229 17 9C17 8.44772 17.4477 8 18 8Z" fill="#B66A1F"/>
<path d="M12 5C12.5523 5 13 5.44772 13 6C13 6.55228 12.5523 7 12 7C11.4477 7 11 6.55228 11 6C11 5.44772 11.4477 5 12 5Z" fill="#B66A1F"/>
<path fill-rule="evenodd" clip-rule="evenodd" d="M12 0.5C18.3513 0.5 23.5 5.64873 23.5 12C23.5 18.3513 18.3513 23.5 12 23.5C11.5505 23.5 11.1072 23.4729 10.6719 23.4219C9.54324 23.2894 9.0764 22.1886 9.12793 21.3721C9.21402 20.0071 8.63602 18.374 7.36719 17.0264C5.97242 15.5452 4.19062 14.8814 2.74805 15.0273C2.29766 15.0729 1.8216 14.9798 1.42578 14.7422C1.02032 14.4987 0.676126 14.0845 0.600586 13.5176C0.534439 13.0211 0.5 12.5146 0.5 12C0.5 5.64873 5.64873 0.5 12 0.5ZM12 2C6.47715 2 2 6.47715 2 12C2 12.4473 2.03037 12.8876 2.08789 13.3193C2.09266 13.3551 2.10996 13.4036 2.19727 13.4561C2.29434 13.5143 2.44321 13.5508 2.59766 13.5352C4.5841 13.3343 6.80403 14.2415 8.45898 15.999C9.97035 17.6043 10.7409 19.6305 10.625 21.4668C10.6159 21.6107 10.6559 21.745 10.7129 21.832C10.7643 21.9104 10.8104 21.9283 10.8467 21.9326C11.2253 21.977 11.6101 22 12 22C17.5228 22 22 17.5228 22 12C22 6.47715 17.5228 2 12 2Z" fill="#B66A1F"/>
</g>
<defs>
<clipPath id="clip0_4858_37157">
<rect width="24" height="24" fill="white"/>
</clipPath>
</defs>
</svg>
