<svg width="24" height="24" viewBox="0 0 24 24" fill="none" xmlns="http://www.w3.org/2000/svg">
<path d="M14.9062 11.9995C16.6147 11.9995 17.9998 13.3849 18 15.0933V18.9058C18 20.6144 16.6149 21.9995 14.9062 21.9995H9.09375C7.38512 21.9995 6 20.6144 6 18.9058V15.0933C6.00025 13.3849 7.38527 11.9995 9.09375 11.9995H14.9062ZM9.09375 13.4995C8.2137 13.4995 7.50025 14.2133 7.5 15.0933V18.9058C7.5 19.786 8.21355 20.4995 9.09375 20.4995H14.9062C15.7865 20.4995 16.5 19.786 16.5 18.9058V15.0933C16.4998 14.2133 15.7863 13.4995 14.9062 13.4995H9.09375ZM9.89551 2.03664C10.0974 1.97114 10.3181 1.99415 10.502 2.10012C11.6318 2.75138 12.2251 3.67491 12.5996 4.62551C12.9424 5.49561 13.1068 6.41844 13.3828 7.30911C13.427 7.45174 13.7744 8.27097 14.9336 8.27102C15.4976 8.27093 15.8332 8.10744 16.0371 7.94875C16.252 7.78149 16.3689 7.58083 16.4287 7.45168C16.5102 7.24979 16.5465 7.02904 16.5908 6.81692C16.6375 6.59357 16.6753 6.35299 16.7939 6.15383C16.8189 6.1119 16.9126 5.95691 17.1055 5.855C17.2186 5.79535 17.3699 5.75267 17.543 5.77102C17.6867 5.78627 17.8169 5.84387 17.9326 5.92825L18.1436 6.10305C18.9859 6.83241 22.0312 9.79232 22.0312 14.5083C22.0312 15.943 21.5063 17.2423 20.625 18.3404C20.2267 18.8366 19.5 18.5128 19.5 17.8765V17.7632C19.5 17.4867 19.5958 17.2203 19.7471 16.9888C20.2307 16.2485 20.5184 15.4028 20.5312 14.5083C20.5312 11.3175 18.898 9.04238 17.8564 7.91555C17.6848 8.39455 17.3578 8.82229 16.958 9.13332C16.482 9.50364 15.8198 9.77092 14.9336 9.77102C12.8285 9.77095 12.0874 8.19598 11.9502 7.75344C11.546 6.44938 11.4149 4.90233 10.4033 3.89504C9.13508 6.30134 7.42357 7.89393 6.08203 9.31985C4.57797 10.9185 3.53129 12.3027 3.53125 14.5083C3.54371 15.3713 3.81078 16.1903 4.26562 16.9126C4.40892 17.1402 4.5 17.3996 4.5 17.6685V17.8042C4.5 18.4438 3.76846 18.7653 3.375 18.2613C2.5316 17.1802 2.03127 15.9086 2.03125 14.5083C2.03129 11.6972 3.43376 9.94589 4.99023 8.29153C6.55913 6.624 8.28238 5.04349 9.44238 2.44387C9.53369 2.25236 9.69163 2.10288 9.89551 2.03664Z" fill="black" fill-opacity="0.84"/>
</svg>
