<svg width="24" height="24" viewBox="0 0 24 24" fill="none" xmlns="http://www.w3.org/2000/svg">
<path d="M9.34904 3.0966C10.8019 1.68704 13.1152 1.69847 14.5541 3.12223L15.7397 4.29533C16.0713 4.62347 16.5553 4.74544 17.0029 4.61369L17.5612 4.44913C19.6973 3.82012 21.8525 5.37623 21.9277 7.60172L22.0112 10.0749C22.1656 14.6517 19.5604 18.875 15.4008 20.7906L13.6208 21.6105C12.5922 22.0841 11.4077 22.0841 10.3791 21.6105L8.59904 20.7906C4.43947 18.875 1.83421 14.6517 1.98869 10.0749L2.07096 7.63419C2.14662 5.39588 4.32493 3.8384 6.46745 4.49064L6.84416 4.60538C7.29016 4.74113 7.77491 4.62384 8.10954 4.29923L9.34904 3.0966ZM16.5456 8.56582C16.2368 8.26449 15.7422 8.27052 15.4408 8.57925L10.8498 13.2819L8.53337 11.1166C8.21816 10.822 7.72374 10.8388 7.42912 11.154C7.13462 11.4692 7.15133 11.9636 7.46647 12.2582L10.3415 14.9457C10.6518 15.2357 11.1372 15.2245 11.434 14.9205L16.559 9.67056C16.8603 9.3618 16.8543 8.8672 16.5456 8.56582Z" fill="white"/>
</svg>
