<svg width="24" height="24" viewBox="0 0 24 24" fill="none" xmlns="http://www.w3.org/2000/svg">
<path d="M12 2C17.5228 2 22 6.47715 22 12C22 12.0277 21.9973 12.0554 21.9971 12.083C20.8946 11.3973 19.594 11 18.2002 11C14.2237 11 11 14.2237 11 18.2002C11 19.594 11.3973 20.8946 12.083 21.9971C12.0554 21.9973 12.0277 22 12 22C6.47715 22 2 17.5228 2 12C2 6.47715 6.47715 2 12 2Z" fill="#1074CC"/>
<path d="M12 1.25C17.9371 1.25 22.75 6.06294 22.75 12C22.75 12.2036 22.7426 12.4057 22.7314 12.6064C22.2771 12.2379 21.7772 11.924 21.2412 11.6738C21.0693 6.7163 16.9994 2.75 12 2.75C6.89137 2.75 2.75 6.89137 2.75 12C2.75 16.9994 6.7163 21.0693 11.6738 21.2412C11.924 21.7772 12.2379 22.2771 12.6064 22.7314C12.4057 22.7426 12.2036 22.75 12 22.75C6.06294 22.75 1.25 17.9371 1.25 12C1.25 6.06294 6.06294 1.25 12 1.25Z" fill="#034180"/>
<path fill-rule="evenodd" clip-rule="evenodd" d="M12.4953 4.32259C12.5905 4.30508 12.6917 4.31943 12.7766 4.36849C12.8612 4.41755 12.9238 4.49679 12.9504 4.58919C12.9767 4.68173 12.966 4.78303 12.9201 4.86946C12.874 4.95584 12.7952 5.02156 12.7053 5.05696C12.4754 5.14952 12.2543 5.2623 12.0422 5.3929C10.1505 6.61508 9.05858 8.82034 8.40937 11.0052C8.39963 11.0395 8.39056 11.0743 8.38105 11.1087C9.5331 11.5887 10.736 11.9856 11.9357 12.3529C12.4422 12.5021 12.9524 12.6435 13.4641 12.7796C13.0335 13.1562 12.6484 13.5829 12.3176 14.0511C12.0428 13.9787 11.7687 13.9038 11.4963 13.8236C10.332 13.4657 9.17441 13.0478 8.06465 12.5159C7.75755 14.2794 7.7832 16.1037 8.30195 17.8216C8.37695 18.0665 8.46206 18.3097 8.55879 18.5482C8.60335 18.6571 8.60957 18.7804 8.5705 18.8929C8.53142 19.0053 8.45171 19.098 8.34687 19.1507C8.24204 19.2033 8.11945 19.2128 8.00605 19.1771C7.89278 19.1412 7.7982 19.0619 7.7375 18.9613C7.59058 18.714 7.45514 18.4582 7.33418 18.1966C6.41412 16.1905 6.25983 13.9107 6.65937 11.7591C6.09838 11.4198 5.55428 11.0429 5.03633 10.6175C4.82289 10.4368 4.61825 10.2469 4.42793 10.0472C4.34039 9.95424 4.28714 9.83144 4.2834 9.70247C4.27983 9.57337 4.32594 9.44767 4.4123 9.35384C4.49871 9.26027 4.61945 9.20366 4.74824 9.19661C4.87739 9.1897 5.00473 9.23386 5.10468 9.3138C5.29062 9.46077 5.48889 9.6026 5.69648 9.73861C6.10717 9.99901 6.53424 10.2375 6.97187 10.4603C7.70832 8.05317 9.16802 5.63964 11.6389 4.57747C11.917 4.46582 12.204 4.37921 12.4953 4.32259ZM15.8937 5.35579C15.9914 5.36463 16.0819 5.41063 16.1496 5.47982C16.3551 5.69363 16.5402 5.92878 16.7033 6.18001C17.6138 7.65952 17.8505 9.35734 17.6955 11.0189C17.1733 11.0551 16.6666 11.1467 16.1809 11.2884C16.4862 9.70289 16.4944 8.07543 15.9045 6.61556C15.8062 6.38668 15.6906 6.1673 15.5559 5.95931C15.5025 5.87857 15.4756 5.78024 15.4875 5.68294C15.4996 5.58553 15.5492 5.49652 15.6242 5.43587C15.6993 5.37545 15.7961 5.34707 15.8937 5.35579Z" fill="#75B6EB"/>
<path d="M24 18C24 21.3137 21.3137 24 18 24C14.6863 24 12 21.3137 12 18C12 14.6863 14.6863 12 18 12C21.3137 12 24 14.6863 24 18Z" fill="black"/>
<path d="M17.9707 13.8213C19.3513 13.8213 20.4704 14.9408 20.4707 16.3213V17.0371C20.7765 17.1321 20.9998 17.414 21 17.751V20.248C21 20.6628 20.6637 20.9997 20.249 21H15.751C15.3362 20.9999 15 20.6629 15 20.248V17.751C15.0002 17.4353 15.1948 17.1657 15.4707 17.0547V16.3213C15.471 14.9408 16.5902 13.8213 17.9707 13.8213ZM18 18C17.448 18.0001 17.0002 18.448 17 19C17.0002 19.552 17.4479 19.9999 18 20C18.552 19.9998 18.9998 19.552 19 19C18.9998 18.448 18.552 18.0002 18 18ZM17.9707 14.8213C17.1425 14.8213 16.471 15.4931 16.4707 16.3213V17H19.4707V16.3213C19.4704 15.4931 18.799 14.8213 17.9707 14.8213Z" fill="white"/>
<path d="M17.9707 13.8213C19.3513 13.8213 20.4704 14.9408 20.4707 16.3213V17.0371C20.7765 17.1321 20.9998 17.414 21 17.751V20.248C21 20.6628 20.6637 20.9997 20.249 21H15.751C15.3362 20.9999 15 20.6629 15 20.248V17.751C15.0002 17.4353 15.1948 17.1657 15.4707 17.0547V16.3213C15.471 14.9408 16.5902 13.8213 17.9707 13.8213ZM18 18C17.448 18.0001 17.0002 18.448 17 19C17.0002 19.552 17.4479 19.9999 18 20C18.552 19.9998 18.9998 19.552 19 19C18.9998 18.448 18.552 18.0002 18 18ZM17.9707 14.8213C17.1425 14.8213 16.471 15.4931 16.4707 16.3213V17H19.4707V16.3213C19.4704 15.4931 18.799 14.8213 17.9707 14.8213Z" stroke="#A1D0F7"/>
</svg>
