<svg fill="none" viewBox="0 0 128 128" xmlns="http://www.w3.org/2000/svg">
  <path fill="#DE5833" d="M64 0c10.317 0 20.064 2.442 28.694 6.778l.331-1.322.091-.335c2.044-6.924 12.072-6.812 13.859.335l2.035 8.142c.664 2.655 2.737 4.728 5.392 5.392l8.142 2.035c7.261 1.816 7.261 12.134 0 13.95l-1.323.33C125.557 43.935 128 53.682 128 64c0 35.346-28.654 64-64 64S0 99.346 0 64 28.654 0 64 0"/>
  <path fill="#DDD" fill-rule="evenodd" d="M73 111.75c0-.5.123-.614-1.466-3.782-4.224-8.459-8.47-20.384-6.54-28.075.353-1.397-3.978-51.744-7.04-53.365-3.402-1.813-7.588-4.69-11.418-5.33-1.943-.31-4.49-.164-6.482.105-.353.047-.368.683-.03.798 1.308.443 2.895 1.212 3.83 2.375.178.22-.06.566-.342.577-.882.032-2.482.402-4.593 2.195-.244.207-.041.592.273.53 4.536-.897 9.17-.455 11.9 2.027.177.16.084.45-.147.512-23.694 6.44-19.003 27.05-12.696 52.344 5.619 22.53 7.733 29.792 8.4 32.004.064.214.215.384.423.467C55.228 118.38 73 118.524 73 113z" clip-rule="evenodd"/>
  <path fill="#fff" fill-rule="evenodd" d="M50.29 115.985c-1.365-5.091-6.161-19.55-10.643-37.92l-.447-1.827-.003-.016c-5.425-22.156-9.855-40.252 14.427-45.937.222-.052.33-.317.183-.492-2.786-3.305-8.005-4.388-14.604-2.111-.27.093-.506-.18-.338-.412 1.294-1.783 3.823-3.155 5.072-3.756.258-.124.242-.502-.031-.588-.817-.255-2.207-.647-3.771-.9-.37-.059-.404-.693-.032-.743 9.356-1.259 19.125 1.55 24.028 7.726.046.058.113.099.185.114 17.953 3.855 19.239 32.235 17.17 33.528-.407.254-1.714.108-3.438-.085-6.985-.781-20.818-2.329-9.401 18.948.113.21-.037.488-.272.525-6.416.997 1.755 21.034 7.812 34.323 2.342 5.138-24.353 5.388-25.898-.377" clip-rule="evenodd"/>
  <path fill="#3CA82B" d="M84.28 90.698c-1.367-.633-6.621 3.135-10.11 6.028-.728-1.031-2.103-1.78-5.203-1.242-2.713.472-4.211 1.126-4.88 2.254-4.283-1.623-11.488-4.13-13.229-1.71-1.902 2.646.476 15.161 3.003 16.786 1.32.849 7.63-3.208 10.926-6.005.532.749 1.388 1.178 3.148 1.137 2.662-.062 6.979-.681 7.649-1.921q.06-.113.105-.266c3.388 1.266 9.35 2.606 10.682 2.406 3.47-.521-.484-16.723-2.09-17.467"/>
  <path fill="#4CBA3C" d="M74.49 97.097c.144.256.26.526.358.8.483 1.352 1.27 5.648.674 6.709-.595 1.062-4.459 1.574-6.843 1.615s-2.92-.831-3.403-2.181c-.387-1.081-.577-3.621-.572-5.075-.098-2.158.69-2.916 4.334-3.506 2.696-.436 4.121.071 4.944.94 3.828-2.857 10.215-6.889 10.838-6.152 3.106 3.674 3.499 12.42 2.826 15.939-.22 1.151-10.505-1.139-10.505-2.38 0-5.152-1.337-6.565-2.65-6.71M51.96 95.488c.843-1.333 7.674.325 11.424 1.993 0 0-.77 3.491.456 7.604.359 1.203-8.627 6.558-9.8 5.637-1.355-1.065-3.85-12.432-2.08-15.234"/>
  <path fill="#FC3" fill-rule="evenodd" d="M55.269 68.407c.553-2.404 3.127-6.933 12.321-6.823 4.648-.019 10.422-.002 14.25-.436 5.689-.647 9.912-2.023 12.726-3.095 3.98-1.519 5.392-1.18 5.887-.272.544.999-.097 2.722-1.488 4.309-2.656 3.03-7.431 5.38-15.865 6.076-8.433.698-14.02-1.565-16.425 2.118-1.038 1.589-.236 5.333 7.92 6.512 11.02 1.59 20.072-1.917 21.19.201s-5.323 6.428-16.362 6.518-17.934-3.865-20.379-5.83c-3.102-2.495-4.49-6.133-3.775-9.279" clip-rule="evenodd"/>
  <g fill="#14307E" opacity=".8">
    <path d="M69.327 42.127c.616-1.008 1.981-1.786 4.216-1.786 2.234 0 3.285.889 4.013 1.88.148.202-.076.44-.306.34l-.168-.073c-.817-.357-1.82-.795-3.54-.82-1.838-.026-2.997.435-3.727.831-.246.134-.634-.133-.488-.372m-25.157 1.29c2.17-.907 3.876-.79 5.081-.504.254.06.43-.213.227-.377-.935-.755-3.03-1.692-5.76-.674-2.437.909-3.585 2.796-3.592 4.038-.002.292.6.317.756.07.42-.67 1.12-1.646 3.289-2.553"/>
    <path fill-rule="evenodd" d="M75.44 55.92c-1.918 0-3.474-1.552-3.474-3.462s1.556-3.46 3.475-3.46c1.918 0 3.474 1.55 3.474 3.46s-1.556 3.462-3.475 3.462m2.447-4.608c0-.495-.405-.895-.9-.895-.494 0-.894.4-.898.895 0 .494.404.895.899.895.499 0 .9-.4.9-.895m-25.465 3.542c0 2.23-1.811 4.037-4.049 4.037-2.234 0-4.05-1.808-4.05-4.037s1.816-4.037 4.05-4.037 4.05 1.808 4.05 4.037m-1.193-1.338c0-.576-.469-1.045-1.049-1.045-.575 0-1.044.465-1.048 1.045 0 .575.469 1.044 1.048 1.044s1.049-.47 1.049-1.044" clip-rule="evenodd"/>
  </g>
  <path fill="#fff" d="M64 5.25c9.307 0 18.109 2.164 25.929 6.016.862.425 1.294 1.4 1.061 2.332-.488 1.952-2.825 2.336-4.655 1.499C79.533 11.985 71.969 10.25 64 10.25c-29.685 0-53.75 24.065-53.75 53.75S34.315 117.75 64 117.75 117.75 93.685 117.75 64c0-7.97-1.735-15.533-4.847-22.336-.838-1.83-.453-4.166 1.499-4.654.932-.234 1.906.198 2.331 1.06 3.853 7.82 6.017 16.622 6.017 25.93 0 32.447-26.303 58.75-58.75 58.75S5.25 96.447 5.25 64 31.553 5.25 64 5.25"/>
  <path fill="#fff" d="M98.482 6.82c.395-1.58 2.641-1.58 3.036 0l2.035 8.142c1.168 4.67 4.814 8.317 9.485 9.485l8.142 2.035c1.579.395 1.579 2.64 0 3.035l-8.142 2.036c-4.671 1.168-8.317 4.814-9.485 9.485l-2.035 8.142c-.395 1.58-2.64 1.58-3.036 0l-2.035-8.142c-1.168-4.67-4.815-8.317-9.485-9.485l-8.142-2.036c-1.58-.395-1.58-2.64 0-3.035l8.142-2.035c4.67-1.168 8.317-4.815 9.485-9.485z"/>
</svg>
