<svg width="128" height="97" viewBox="0 0 128 97" fill="none" xmlns="http://www.w3.org/2000/svg">
<path opacity="0.2" d="M105.629 38.8665L107.171 38.4665C107.457 38.4094 107.743 38.1236 107.8 37.8379L108.2 36.2951C108.314 35.8951 108.657 35.6665 109 35.6665C109.4 35.6665 109.743 35.9522 109.8 36.2951L110.2 37.8379C110.257 38.1236 110.543 38.4094 110.829 38.4665L112.371 38.8665C112.771 38.9808 113 39.3236 113 39.6665C113 40.0665 112.714 40.4094 112.371 40.4665L110.829 40.8665C110.543 40.9236 110.257 41.2094 110.2 41.4951L109.8 43.0379C109.686 43.4379 109.343 43.6665 109 43.6665C108.6 43.6665 108.257 43.3808 108.2 43.0379L107.8 41.4951C107.743 41.2094 107.457 40.9236 107.171 40.8665L105.629 40.4665C105.229 40.3522 105 40.0094 105 39.6665C105 39.2665 105.286 38.9236 105.629 38.8665Z" fill="#888888"/>
<path opacity="0.2" d="M15.9428 32.4665L18.2571 31.8665C18.6857 31.7808 19.1143 31.3522 19.2 30.9236L19.8 28.6094C19.9714 28.0094 20.4857 27.6665 21 27.6665C21.6 27.6665 22.1143 28.0951 22.2 28.6094L22.8 30.9236C22.8857 31.3522 23.3143 31.7808 23.7429 31.8665L26.0572 32.4665C26.6572 32.6379 27 33.1522 27 33.6665C27 34.2665 26.5714 34.7808 26.0572 34.8665L23.7429 35.4665C23.3143 35.5522 22.8857 35.9808 22.8 36.4094L22.2 38.7236C22.0286 39.3236 21.5143 39.6665 21 39.6665C20.4 39.6665 19.8857 39.2379 19.8 38.7236L19.2 36.4094C19.1143 35.9808 18.6857 35.5522 18.2571 35.4665L15.9428 34.8665C15.3428 34.6951 15 34.1808 15 33.6665C15 33.0665 15.4286 32.5522 15.9428 32.4665Z" fill="#888888"/>
<path opacity="0.2" d="M0.628558 53.8665L2.17142 53.4665C2.45714 53.4094 2.74287 53.1236 2.80001 52.8379L3.19999 51.2951C3.31427 50.8951 3.65714 50.6665 4 50.6665C4.4 50.6665 4.74287 50.9522 4.80001 51.2951L5.19999 52.8379C5.25713 53.1236 5.54286 53.4094 5.82858 53.4665L7.37144 53.8665C7.77144 53.9808 8 54.3236 8 54.6665C8 55.0665 7.7143 55.4094 7.37144 55.4665L5.82858 55.8665C5.54286 55.9236 5.25713 56.2094 5.19999 56.4951L4.80001 58.0379C4.68573 58.4379 4.34286 58.6665 4 58.6665C3.6 58.6665 3.25713 58.3808 3.19999 58.0379L2.80001 56.4951C2.74287 56.2094 2.45714 55.9236 2.17142 55.8665L0.628558 55.4665C0.228558 55.3522 4.76837e-07 55.0094 4.76837e-07 54.6665C4.76837e-07 54.2665 0.285701 53.9236 0.628558 53.8665Z" fill="#888888"/>
<path opacity="0.2" d="M126.5 52.6665C125.675 52.6665 125 51.9915 125 51.1665C125 50.3415 125.675 49.6665 126.5 49.6665C127.325 49.6665 128 50.3415 128 51.1665C128 51.9915 127.325 52.6665 126.5 52.6665Z" fill="#888888"/>
<path opacity="0.2" d="M23 70.6665C21.9 70.6665 21 69.7665 21 68.6665C21 67.5665 21.9 66.6665 23 66.6665C24.1 66.6665 25 67.5665 25 68.6665C25 69.7665 24.1 70.6665 23 70.6665Z" fill="#888888"/>
<path d="M67.4213 65.8715C66.9296 67.6075 66.6665 69.4395 66.6665 71.333V73.4869C66.6665 76.0062 64.7873 78.1771 62.2684 78.1375C57.4868 78.0623 52.6628 76.8833 48.1814 74.4999C47.5169 74.1487 46.696 74.3633 46.3247 75.0073L43.8035 79.3201C43.1781 80.3739 41.595 80.1593 41.2823 78.9689L36.9045 62.147C36.7091 61.425 37.139 60.6639 37.8817 60.4688L54.67 56.0779C55.8622 55.7657 56.8394 57.0536 56.214 58.1074L53.6342 62.4983C53.2433 63.1813 53.4778 64.079 54.1814 64.4303C58.4187 66.523 63.1021 66.9315 67.4213 65.8715Z" fill="#DE5833"/>
<path d="M81.6313 51.9722C82.0261 50.4936 82.2394 48.9903 82.2858 47.4913C82.3249 45.8131 83.3998 44.369 85.0219 43.9396L91.491 42.2418C92.6246 41.9491 93.7386 42.7492 93.8558 43.9201C93.954 44.9448 94.0024 45.9756 93.9998 47.0088C93.9937 49.4981 91.8393 51.333 89.3501 51.333H86.6665C84.9273 51.333 83.24 51.555 81.6313 51.9722Z" fill="#DE5833"/>
<path d="M47.3124 37.4329C52.1212 29.2366 62.4257 26.2283 70.8321 30.3715C71.4829 30.6957 71.6999 31.5244 71.3383 32.1549L68.952 36.2079C68.3735 37.1807 69.2774 38.3696 70.3802 38.0814L85.9094 34.0283C86.5964 33.8481 86.9941 33.1456 86.8133 32.4791L82.7638 16.9512C82.4745 15.8524 81.0102 15.6543 80.4317 16.627L78.0996 20.608C77.7561 21.2025 76.9968 21.4007 76.3822 21.0764C62.8054 13.8709 45.8299 18.5905 37.9659 31.9747C34.766 37.4149 33.5729 43.4675 34.1333 49.3039C34.2418 50.3848 35.2722 51.1233 36.3208 50.8531L42.3047 49.2859C43.8052 48.8896 44.7994 47.5566 44.8356 46.0074C44.926 43.0892 45.7034 40.153 47.2943 37.4509L47.3124 37.4329Z" fill="#3969EF"/>
<path fill-rule="evenodd" clip-rule="evenodd" d="M85.0994 55.4089C85.6154 55.3587 86.1382 55.333 86.6665 55.333C87.1948 55.333 87.7176 55.3587 88.2336 55.4089C89.0581 55.4891 89.6615 56.2226 89.5812 57.0471C89.501 57.8717 88.7675 58.475 87.943 58.3948C87.5234 58.3539 87.0976 58.333 86.6665 58.333C86.2354 58.333 85.8096 58.3539 85.39 58.3948C84.5655 58.475 83.832 57.8717 83.7518 57.0471C83.6715 56.2226 84.2749 55.4891 85.0994 55.4089ZM82.0466 57.5024C82.3889 58.2568 82.0549 59.1459 81.3005 59.4882C80.5215 59.8418 79.7832 60.2701 79.0948 60.7643C78.4218 61.2474 77.4846 61.0935 77.0015 60.4205C76.5184 59.7475 76.6723 58.8103 77.3453 58.3272C78.192 57.7194 79.1009 57.192 80.0608 56.7564C80.8151 56.414 81.7042 56.748 82.0466 57.5024ZM91.2864 57.5024C91.6288 56.748 92.5179 56.414 93.2723 56.7564C94.2321 57.192 95.141 57.7194 95.9877 58.3272C96.6607 58.8103 96.8146 59.7475 96.3315 60.4205C95.8484 61.0935 94.9112 61.2474 94.2382 60.7643C93.5498 60.2701 92.8115 59.8418 92.0325 59.4882C91.2781 59.1459 90.9441 58.2568 91.2864 57.5024ZM75.754 61.668C76.427 62.1511 76.5809 63.0883 76.0978 63.7613C75.6036 64.4497 75.1753 65.188 74.8217 65.967C74.4794 66.7214 73.5903 67.0554 72.8359 66.7131C72.0815 66.3707 71.7475 65.4816 72.0899 64.7273C72.5255 63.7674 73.0529 62.8585 73.6607 62.0118C74.1438 61.3388 75.081 61.1849 75.754 61.668ZM97.579 61.668C98.252 61.1849 99.1892 61.3388 99.6723 62.0118C100.28 62.8585 100.808 63.7674 101.243 64.7273C101.585 65.4816 101.251 66.3707 100.497 66.7131C99.7427 67.0554 98.8536 66.7214 98.5113 65.967C98.1577 65.188 97.7294 64.4497 97.2352 63.7613C96.7521 63.0883 96.906 62.1511 97.579 61.668ZM72.3806 68.4183C73.2052 68.4985 73.8085 69.232 73.7283 70.0565C73.6874 70.4761 73.6665 70.9019 73.6665 71.333C73.6665 71.7641 73.6874 72.1899 73.7283 72.6095C73.8085 73.434 73.2052 74.1675 72.3806 74.2478C71.5561 74.328 70.8226 73.7246 70.7424 72.9001C70.6922 72.3841 70.6665 71.8613 70.6665 71.333C70.6665 70.8047 70.6922 70.2819 70.7424 69.7659C70.8226 68.9414 71.5561 68.338 72.3806 68.4183ZM100.952 68.4183C101.777 68.338 102.51 68.9414 102.591 69.7659C102.641 70.2819 102.667 70.8047 102.667 71.333C102.667 71.8613 102.641 72.3841 102.591 72.9001C102.51 73.7246 101.777 74.328 100.952 74.2478C100.128 74.1675 99.5245 73.434 99.6047 72.6095C99.6456 72.1899 99.6665 71.7641 99.6665 71.333C99.6665 70.9019 99.6456 70.4761 99.6047 70.0565C99.5245 69.232 100.128 68.4985 100.952 68.4183ZM72.8359 75.9529C73.5903 75.6106 74.4794 75.9446 74.8217 76.699C75.1753 77.478 75.6036 78.2163 76.0978 78.9047C76.5809 79.5777 76.427 80.5149 75.754 80.998C75.081 81.4811 74.1438 81.3272 73.6607 80.6542C73.0529 79.8075 72.5255 78.8986 72.0899 77.9388C71.7475 77.1844 72.0815 76.2953 72.8359 75.9529ZM100.497 75.9529C101.251 76.2953 101.585 77.1844 101.243 77.9388C100.808 78.8986 100.28 79.8075 99.6723 80.6542C99.1892 81.3272 98.252 81.4811 97.579 80.998C96.906 80.5149 96.7521 79.5777 97.2352 78.9047C97.7294 78.2163 98.1577 77.478 98.5113 76.699C98.8536 75.9446 99.7427 75.6106 100.497 75.9529ZM77.0015 82.2455C77.4846 81.5725 78.4218 81.4186 79.0948 81.9017C79.7832 82.3959 80.5215 82.8243 81.3005 83.1778C82.0549 83.5201 82.3889 84.4092 82.0466 85.1636C81.7042 85.918 80.8151 86.252 80.0608 85.9096C79.1009 85.474 78.192 84.9466 77.3453 84.3388C76.6723 83.8557 76.5184 82.9185 77.0015 82.2455ZM96.3315 82.2455C96.8146 82.9185 96.6607 83.8557 95.9877 84.3388C95.141 84.9466 94.2321 85.474 93.2723 85.9096C92.5179 86.252 91.6288 85.918 91.2864 85.1636C90.9441 84.4092 91.2781 83.5201 92.0325 83.1778C92.8115 82.8243 93.5498 82.3959 94.2382 81.9017C94.9112 81.4186 95.8484 81.5725 96.3315 82.2455ZM83.7518 85.6189C83.832 84.7944 84.5655 84.191 85.39 84.2712C85.8096 84.3121 86.2354 84.333 86.6665 84.333C87.0976 84.333 87.5234 84.3121 87.943 84.2712C88.7675 84.191 89.501 84.7944 89.5812 85.6189C89.6615 86.4434 89.0581 87.1769 88.2336 87.2571C87.7176 87.3074 87.1948 87.333 86.6665 87.333C86.1382 87.333 85.6154 87.3074 85.0994 87.2571C84.2749 87.1769 83.6715 86.4434 83.7518 85.6189Z" fill="#CCCCCC"/>
<path d="M93.7295 69.3326C94.2476 68.8126 94.2476 67.9714 93.7295 67.4513L92.5632 66.2808C92.0424 65.758 91.1958 65.758 90.6749 66.2808L85.7062 71.2679C85.1853 71.7907 84.3388 71.7907 83.8179 71.2679L82.6584 70.1042C82.1376 69.5815 81.2911 69.5815 80.7702 70.1043L79.604 71.2748C79.0858 71.7949 79.0858 72.6361 79.604 73.1562L83.8179 77.3855C84.3388 77.9083 85.1853 77.9083 85.7062 77.3855L93.7295 69.3326Z" fill="#CCCCCC"/>
</svg>
