<svg width="24" height="24" viewBox="0 0 24 24" fill="none" xmlns="http://www.w3.org/2000/svg">
<path d="M12.0859 1.84375C17.6088 1.84375 22.0859 5.87319 22.0859 10.8438C22.0859 14.8803 18.8377 18.2829 14.6592 19.4195C14.6566 19.4202 14.6564 19.4239 14.659 19.4248C14.6616 19.4256 14.6615 19.4294 14.6588 19.43L4.06349 22.0949C3.12473 22.331 2.43167 21.2286 3.05131 20.4849L4.71818 18.4844C5.07591 18.0551 5.00756 17.4194 4.61459 17.0221C3.02423 15.4139 2.08594 13.2411 2.08594 10.8438C2.08594 5.87319 6.56309 1.84375 12.0859 1.84375Z" fill="#1074CC"/>
<path d="M21.3359 10.8438C21.3359 6.35978 17.2709 2.59375 12.0859 2.59375C6.90102 2.59375 2.83594 6.35978 2.83594 10.8438C2.83594 13.0398 3.69322 15.0246 5.14746 16.4951C5.77403 17.1287 5.93209 18.199 5.29395 18.9648L3.62793 20.9648C3.47302 21.1508 3.64617 21.4262 3.88086 21.3672L14.3662 18.7295C14.3968 18.7168 14.4284 18.7044 14.4619 18.6953C18.4098 17.6215 21.3359 14.4518 21.3359 10.8438ZM15.1289 18.8359C15.1788 18.8747 15.2203 18.92 15.2568 18.9678C15.1965 18.8888 15.1197 18.8185 15.0215 18.7666L15.1289 18.8359ZM22.8359 10.8438C22.8359 15.2654 19.3335 18.8712 14.9834 20.1055C14.9393 20.1259 14.8926 20.1444 14.8418 20.1572L4.24609 22.8223C2.60341 23.2351 1.39128 21.3062 2.47559 20.0049L4.1416 18.0039C4.21888 17.9111 4.24033 17.7109 4.08105 17.5498C2.35456 15.804 1.33594 13.4424 1.33594 10.8438C1.33594 5.3866 6.22516 1.09375 12.0859 1.09375C17.9467 1.09375 22.8359 5.3866 22.8359 10.8438Z" fill="#034180"/>
<path d="M11.5405 5.49937C11.6601 5.02104 12.3399 5.02104 12.4595 5.49937L13.0073 7.69072C13.2618 8.70884 14.0568 9.50379 15.0749 9.75832L17.2663 10.3062C17.7446 10.4257 17.7446 11.1055 17.2663 11.2251L15.0749 11.7729C14.0568 12.0275 13.2618 12.8224 13.0073 13.8405L12.4595 16.0319C12.3399 16.5102 11.6601 16.5102 11.5405 16.0319L10.9927 13.8405C10.7382 12.8224 9.94321 12.0275 8.92509 11.7729L6.73374 11.2251C6.25542 11.1055 6.25542 10.4257 6.73374 10.3062L8.92509 9.75832C9.94321 9.50379 10.7382 8.70884 10.9927 7.69072L11.5405 5.49937Z" fill="#CBEAFF"/>
<path d="M11.8149 5.26293C11.8901 5.26607 11.962 5.29927 12.0151 5.35473C12.0681 5.41021 12.097 5.4843 12.102 5.55981C12.1106 5.70356 12.1165 5.84404 12.1195 5.9807C12.1343 7.22606 11.9573 8.65493 10.9154 9.70824C9.84168 10.755 8.39341 10.833 7.19474 10.8791C7.05741 10.8835 6.92041 10.8869 6.78361 10.8899C6.71106 10.8913 6.63813 10.8693 6.58049 10.8235C6.52272 10.7776 6.48467 10.7116 6.47502 10.6399C6.46546 10.5683 6.48524 10.4952 6.52873 10.4358C6.57228 10.3763 6.63697 10.3354 6.70744 10.3176C6.84128 10.2842 6.97415 10.2524 7.10685 10.2209C8.29823 9.9407 9.47583 9.69671 10.1879 8.97192C10.9153 8.2598 11.2342 7.10551 11.4399 5.9309C11.4623 5.80365 11.4832 5.67098 11.5033 5.53442C11.5146 5.45963 11.5504 5.38901 11.6078 5.33813C11.6653 5.28715 11.7396 5.25984 11.8149 5.26293Z" fill="white"/>
</svg>
