<svg width="35" height="35" viewBox="0 0 35 35" fill="none" xmlns="http://www.w3.org/2000/svg">
<g clip-path="url(#clip0_3724_3864)">
<path d="M17.0662 5.52917C18.1973 5.52925 19.3493 5.90948 20.3318 6.87878C21.1595 7.69504 22.4855 8.49268 24.2596 9.07019C25.4007 9.44185 26.3681 9.76475 27.0682 10.4247C27.7802 11.0961 28.1937 12.0894 28.3133 13.7401L28.3406 14.2089C28.4484 16.6083 28.0863 19.8498 26.2381 22.8876C25.0344 24.867 23.3064 26.2947 21.6033 27.2274C19.9038 28.1581 18.2111 28.6053 17.0662 28.6053C15.9214 28.6053 14.2285 28.1572 12.5291 27.2264C10.8262 26.2936 9.09799 24.8661 7.89434 22.8876C5.92433 19.6471 5.64312 16.1735 5.82012 13.7401L5.84551 13.4384C5.992 11.9673 6.39681 11.0553 7.06426 10.4257C7.76437 9.76549 8.7316 9.4419 9.87286 9.07019C11.6457 8.49259 12.9739 7.69511 13.8016 6.87878C14.7841 5.90968 15.9352 5.52923 17.0662 5.52917ZM18.9285 6.1405C18.0574 5.73503 17.3515 6.64913 17.5428 7.5907C17.8175 8.94147 17.8888 10.2388 18.0975 13.3729C18.3935 17.8186 17.732 22.5127 16.9842 26.5458C16.7607 27.7509 18.0671 28.3846 19.2322 28.0233C21.4948 27.3215 24.3359 25.6293 26.0672 22.7821C28.01 19.5888 28.2882 16.163 28.1131 13.7538C27.8776 10.5042 26.5015 10.0089 24.1981 9.25867C22.4025 8.67419 21.0464 7.8638 20.1912 7.02039C19.8175 6.65172 19.3906 6.35562 18.9285 6.1405Z" fill="#368372"/>
<path d="M20.1911 7.01996C21.0463 7.86347 22.4019 8.67442 24.1977 9.25896C26.5013 10.0092 27.8775 10.5035 28.113 13.7533C28.2881 16.1625 28.01 19.5883 26.0671 22.7818C24.3357 25.6291 21.4951 27.3214 19.2324 28.0232C18.0673 28.3846 16.7612 27.751 16.9847 26.5458C17.7325 22.5128 18.3934 17.819 18.0974 13.3733C17.8886 10.2389 17.8173 8.94187 17.5426 7.59104C17.3511 6.64935 18.0573 5.73452 18.9285 6.14003C19.3907 6.35515 19.8174 6.65124 20.1911 7.01996Z" fill="#459F8B" stroke="#459F8B" stroke-width="0.4" stroke-linecap="round" stroke-linejoin="round"/>
<path d="M28.301 13.7369C28.2995 13.7195 28.2911 13.7034 28.2778 13.6921C28.2644 13.6807 28.2473 13.675 28.2299 13.6763C28.2126 13.6776 28.1964 13.6857 28.1849 13.6988C28.1733 13.712 28.1673 13.7292 28.1684 13.7465C28.1684 13.7465 28.1684 13.7465 28.1684 13.7465C28.1936 14.1772 28.1976 14.613 28.1829 15.0444C28.0874 17.7362 27.2966 20.3862 25.9072 22.665C25.9042 22.6699 25.9012 22.6748 25.8982 22.6797C24.6344 24.7521 22.6693 26.3576 20.4554 27.3457C19.3774 27.8171 18.2227 28.1885 17.0667 28.2197C15.6554 28.2105 14.2362 27.7972 12.9332 27.1965C12.5428 27.0141 12.1618 26.8103 11.7925 26.5849C11.7742 26.5738 11.7523 26.5699 11.7313 26.5745C11.7103 26.5791 11.692 26.5917 11.6804 26.6097C11.6688 26.6276 11.6648 26.6495 11.6692 26.6705C11.6736 26.6915 11.6861 26.7099 11.7037 26.722C11.7037 26.722 11.7037 26.722 11.7037 26.722C12.066 26.97 12.443 27.1962 12.8324 27.4C14.136 28.0718 15.5635 28.5475 17.0667 28.5897C18.3186 28.5797 19.5041 28.2038 20.6205 27.7175C22.9038 26.6982 24.9306 25.0411 26.237 22.8858C26.2401 22.8808 26.2431 22.8757 26.2462 22.8707C27.6706 20.5188 28.3522 17.7657 28.3563 15.0474C28.3565 14.6108 28.3387 14.1709 28.301 13.7369Z" fill="black"/>
<path d="M27.9599 12.3822C27.965 12.4008 27.977 12.4169 27.9936 12.4268C28.0102 12.4368 28.03 12.4398 28.0487 12.4352C28.0674 12.4306 28.0835 12.4188 28.0936 12.4023C28.1037 12.3858 28.1069 12.366 28.1028 12.3472C28.1028 12.3472 28.1028 12.3472 28.1028 12.3472C27.9573 11.6663 27.6607 10.9881 27.144 10.4836C26.3532 9.71231 25.2908 9.39835 24.3115 9.05502C22.8834 8.56121 21.4571 7.93229 20.373 6.91862C20.3592 6.9054 20.3456 6.89216 20.3322 6.87892C19.4858 6.02202 18.2747 5.51467 17.0671 5.52971C15.8596 5.51493 14.6486 6.02251 13.8025 6.87946C12.7261 7.92154 11.314 8.59675 9.87433 9.07201C8.85497 9.41898 7.72095 9.71943 6.90965 10.5868C6.10676 11.4627 5.9108 12.6521 5.82505 13.7402C5.74234 14.885 5.76421 16.042 5.90558 17.1841C6.15188 19.1949 6.81848 21.1644 7.90243 22.8756C8.24377 23.416 8.62112 23.9335 9.03592 24.4189C9.4875 24.9471 9.98379 25.438 10.5278 25.8697C10.5414 25.8805 10.5588 25.8854 10.5762 25.8835C10.5935 25.8816 10.6094 25.8731 10.6204 25.8596C10.6313 25.8462 10.6365 25.8289 10.6348 25.8115C10.6331 25.7941 10.6248 25.7781 10.6115 25.7669C10.0864 25.3277 9.61262 24.8292 9.1856 24.2952C8.79334 23.8043 8.44024 23.283 8.12318 22.7413C7.11788 21.0273 6.53137 19.0987 6.29174 17.1363C6.15446 16.0213 6.13369 14.8893 6.21543 13.7686C6.29646 12.7106 6.4996 11.6079 7.19899 10.8536C7.89693 10.0979 8.97369 9.7903 9.99684 9.4481C11.4757 8.95897 12.9304 8.27379 14.0819 7.16263C14.8669 6.37177 15.9543 5.91719 17.0671 5.92854C18.1799 5.91745 19.2671 6.37225 20.0519 7.16314C20.0664 7.17753 20.0812 7.19188 20.096 7.2062C21.267 8.2969 22.7367 8.91103 24.205 9.38189C25.194 9.69987 26.2232 9.97751 26.9768 10.659C27.4718 11.1042 27.7836 11.7252 27.9599 12.3822Z" fill="black"/>
<path d="M11.0324 10.2143C11.0132 10.2224 10.9977 10.2376 10.9895 10.2568C10.9812 10.276 10.9808 10.2976 10.9885 10.317C10.9961 10.3364 11.0111 10.352 11.0303 10.3604C11.0494 10.3688 11.0711 10.3693 11.0906 10.3622C11.0906 10.3622 11.0906 10.3622 11.0906 10.3622C11.2023 10.3211 11.3132 10.279 11.4236 10.2355C12.7554 9.70826 14.036 8.99373 15.0941 7.99859C15.1312 7.96344 15.1683 7.92761 15.2045 7.89176C15.4375 7.66049 15.7013 7.46316 15.9957 7.3223C16.2648 7.19525 16.5481 7.09604 16.8432 7.04795C16.9566 7.0295 17.0714 7.01872 17.187 7.01685C17.1999 7.01665 17.2126 7.0119 17.2222 7.00304C17.2318 6.99419 17.2376 6.98204 17.2383 6.96916C17.239 6.95627 17.2345 6.94358 17.2259 6.93376C17.2173 6.92394 17.2052 6.91787 17.1923 6.91631C17.1923 6.91631 17.1923 6.91631 17.1923 6.91631C17.0721 6.90192 16.9502 6.89795 16.8284 6.90352C16.5114 6.91794 16.1986 6.99655 15.9045 7.11279C15.5717 7.24598 15.2717 7.45417 15.0182 7.70191C14.9828 7.73625 14.9468 7.7708 14.9108 7.80485C13.886 8.76901 12.6501 9.49665 11.3561 10.0743C11.2489 10.122 11.1411 10.1686 11.0324 10.2143Z" fill="#272520"/>
<path d="M7.31554 13.6616C7.31617 13.6463 7.311 13.6311 7.30083 13.6195C7.29065 13.6078 7.27636 13.6007 7.26103 13.5995C7.2457 13.5984 7.23052 13.6034 7.21876 13.6135C7.207 13.6235 7.19968 13.6378 7.19807 13.6531C7.19807 13.6531 7.19807 13.6531 7.19807 13.6531C7.17824 13.8417 7.16194 14.0348 7.14957 14.2245C7.03741 15.9611 7.22779 17.7286 7.76966 19.395C8.07989 20.3496 8.50541 21.267 9.04149 22.1156C9.42278 22.7198 9.87457 23.2767 10.3778 23.7781C10.5139 23.9137 10.6537 24.0452 10.7969 24.1727C10.8106 24.1849 10.8284 24.1915 10.8468 24.1909C10.8652 24.1902 10.8826 24.1824 10.8952 24.1691C10.9077 24.1558 10.9145 24.138 10.914 24.1196C10.9136 24.1012 10.9059 24.0837 10.8929 24.0708C10.8929 24.0708 10.8929 24.0708 10.8929 24.0708C10.7588 23.9372 10.6282 23.8003 10.5013 23.6603C10.0317 23.1425 9.61293 22.581 9.25945 21.9825C8.75925 21.136 8.35792 20.2358 8.05448 19.3024C7.52518 17.6735 7.28858 15.954 7.30149 14.2301C7.30298 14.0418 7.30778 13.8498 7.31554 13.6616Z" fill="#272520"/>
<path d="M18.299 26.8779C18.2824 26.8819 18.2679 26.8922 18.2589 26.9067C18.2498 26.9212 18.2469 26.9387 18.2507 26.9553C18.2546 26.972 18.2648 26.9864 18.2793 26.9955C18.2938 27.0046 18.3113 27.0076 18.328 27.0039C18.328 27.0039 18.328 27.0039 18.328 27.0039C18.7926 26.9008 19.2483 26.7583 19.692 26.5866C20.1619 26.4045 20.6182 26.189 21.059 25.944C22.6795 25.0407 24.1141 23.7591 25.0915 22.1619C26.6471 19.632 27.2315 16.5853 27.0223 13.6452C26.9589 12.9697 26.9167 12.264 26.4916 11.6366C26.4884 11.6324 26.4852 11.6283 26.4821 11.6243C25.813 10.9101 24.9303 10.7966 24.1342 10.4992C22.5318 9.98228 20.977 9.26082 19.6571 8.20757C19.4607 8.04979 19.2705 7.88434 19.0883 7.71069C18.9295 7.55954 18.7683 7.40894 18.5908 7.27425C18.5792 7.26549 18.5647 7.26149 18.5502 7.26327C18.5357 7.26505 18.5225 7.27245 18.5136 7.28387C18.5046 7.29529 18.5005 7.30983 18.5022 7.32432C18.5038 7.33881 18.5112 7.35203 18.5224 7.36125C18.5224 7.36125 18.5224 7.36125 18.5224 7.36125C18.6879 7.49746 18.8409 7.65149 18.9928 7.80715C19.1715 7.99045 19.3589 8.16544 19.5532 8.33253C20.8595 9.4487 22.4274 10.2192 24.0483 10.762C24.8262 11.0506 25.7498 11.2396 26.2527 11.8031C26.2553 11.8064 26.2578 11.8096 26.2602 11.8129C26.6056 12.3099 26.678 13.0147 26.734 13.666C26.9443 16.555 26.3878 19.5431 24.8863 22.0376C23.9485 23.6033 22.5579 24.879 20.9731 25.7921C20.5426 26.0395 20.0961 26.2585 19.6359 26.4451C19.2013 26.6211 18.7544 26.7688 18.299 26.8779Z" fill="#272520"/>
</g>
<defs>
<clipPath id="clip0_3724_3864">
<rect width="34.1333" height="34.1333" fill="white"/>
</clipPath>
</defs>
</svg>
