<svg width="16" height="16" viewBox="0 0 16 16" fill="none" xmlns="http://www.w3.org/2000/svg">
<g clip-path="url(#clip0_2004_17008)">
<path d="M8.09945 0.000976562C12.2986 0.0521034 15.7186 3.33803 15.9833 7.48242C16.0011 7.55833 16.0049 7.63472 15.995 7.70801C15.9985 7.80479 15.9999 7.90237 15.9999 8C15.9999 8.24723 15.9887 8.49189 15.9667 8.7334C15.9254 9.18716 15.3078 9.29253 14.9833 8.97266C14.8962 8.88684 14.805 8.80466 14.7108 8.72656C14.7212 8.62949 14.73 8.53186 14.7362 8.43359C14.6316 8.45877 14.5267 8.48285 14.4218 8.50684C13.7348 8.02974 12.8997 7.75001 11.9999 7.75L11.8905 7.75098C10.6502 7.78244 9.54204 8.34568 8.785 9.2207C7.61908 9.25248 6.45121 9.21437 5.28887 9.10449C5.39735 10.6196 5.72517 11.9559 6.18243 12.9551C6.77297 14.2453 7.46151 14.7498 7.99984 14.75C8.18665 14.75 8.39166 14.6889 8.60433 14.5557C8.71772 14.7061 8.84154 14.8485 8.97348 14.9824C9.29327 15.3071 9.18707 15.9255 8.73324 15.9668C8.49181 15.9887 8.24698 16 7.99984 16L7.89632 15.999C3.52586 15.9434 -0.000244141 12.3836 -0.000244141 8C-0.00024414 7.90192 0.00211544 7.80425 0.00561529 7.70703C-0.0040482 7.63428 -0.00121825 7.55873 0.0163576 7.4834C0.282664 3.30605 3.75527 0.000189166 7.99984 0L8.09945 0.000976562ZM11.9999 9C13.6567 9 14.9999 10.3431 14.9999 12C14.9999 12.6022 14.8229 13.1629 14.5175 13.6328L15.8173 14.9336L15.8398 14.9561C16.0614 15.2014 16.0537 15.5809 15.8173 15.8174C15.5808 16.0536 15.2022 16.0604 14.9569 15.8389L14.9335 15.8174L13.6337 14.5166C13.1637 14.8222 12.6022 15 11.9999 15C10.3432 14.9998 8.99984 13.6567 8.99984 12C8.99985 10.3433 10.3432 9.00025 11.9999 9ZM1.26344 8.43359C1.43091 11.0753 3.11843 13.3041 5.46075 14.2559C5.3082 14.0092 5.17001 13.7462 5.0457 13.4746C4.49055 12.2614 4.1259 10.6882 4.02714 8.95703C3.10014 8.82793 2.17761 8.6535 1.26344 8.43359ZM11.9999 10.25C11.0336 10.2502 10.2499 11.0337 10.2499 12C10.2499 12.9663 11.0336 13.7498 11.9999 13.75C12.9664 13.75 13.7499 12.9665 13.7499 12C13.7499 11.0335 12.9664 10.25 11.9999 10.25ZM7.99984 1.25C7.46151 1.25021 6.77297 1.7547 6.18243 3.04492C5.63182 4.2481 5.26952 5.94026 5.25078 7.84473C7.0788 8.02801 8.92087 8.02802 10.7489 7.84473C10.7301 5.9403 10.3688 4.24807 9.81821 3.04492C9.22754 1.75435 8.53823 1.25 7.99984 1.25ZM5.46075 1.74414C3.24101 2.64608 1.60967 4.69493 1.3025 7.15527C2.19531 7.37902 3.09651 7.55756 4.00273 7.69043C4.03887 5.70542 4.42207 3.88822 5.0457 2.52539C5.17001 2.25376 5.3082 1.99077 5.46075 1.74414ZM10.5389 1.74414C10.6915 1.99081 10.8306 2.25371 10.9549 2.52539C11.5785 3.88821 11.9608 5.70549 11.9969 7.69043C12.9033 7.55753 13.8052 7.37906 14.6981 7.15527C14.391 4.69482 12.7588 2.64603 10.5389 1.74414Z" fill="black" fill-opacity="0.84"/>
</g>
<defs>
<clipPath id="clip0_2004_17008">
<rect width="16" height="16" fill="white"/>
</clipPath>
</defs>
</svg>
