<svg width="24" height="24" viewBox="0 0 24 24" fill="none" xmlns="http://www.w3.org/2000/svg">
<path d="M12 22C13.988 22 17.984 20.4703 20.1153 17.0414C21.8672 14.2248 22.118 11.2032 21.9601 9.07825C21.7477 6.21197 20.5069 5.77602 18.4299 5.11427C16.8108 4.59871 15.5885 3.88344 14.8175 3.13946C13.9681 2.31978 12.9767 2 12 2C11.0232 2 10.0318 2.31978 9.18246 3.13946C8.4114 3.88344 7.18779 4.59871 5.57002 5.11427C3.49306 5.77602 2.2522 6.21327 2.03986 9.07825C1.88193 11.2019 2.13408 14.2248 3.88456 17.0414C6.01593 20.469 10.0119 22 12 22Z" fill="#247A64"/>
<path d="M12.1553 1.25342C13.2571 1.2866 14.3802 1.67603 15.3379 2.6001C16.0051 3.2438 17.1169 3.90938 18.6572 4.3999C19.6556 4.71801 20.6607 5.03455 21.4023 5.71826C22.1921 6.44669 22.5943 7.48869 22.708 9.02295L22.7334 9.45166C22.8309 11.573 22.5199 14.4326 20.9219 17.1567L20.752 17.438C19.6026 19.2868 17.9614 20.6095 16.3584 21.4683C15.0034 22.1941 13.6282 22.6118 12.54 22.7202C13.7829 15.7564 13.277 7.59218 12.1553 1.25342Z" fill="#589D88"/>
<path d="M12.7567 5.11328C12.8295 5.10069 12.905 5.11689 12.9666 5.15918C13.0281 5.20146 13.0712 5.26613 13.0887 5.33789C13.1433 5.56268 13.1951 5.79229 13.243 6.02051C13.6713 8.07605 13.8517 10.1729 13.8797 12.2617C13.9045 14.3518 13.7733 16.4414 13.4852 18.5098C13.4531 18.7389 13.4188 18.9707 13.3827 19.1982C13.3705 19.2741 13.3316 19.3447 13.2713 19.3936C13.211 19.4424 13.1339 19.466 13.0575 19.459C12.9809 19.4517 12.9095 19.4138 12.8592 19.3545C12.809 19.2951 12.7837 19.2186 12.786 19.1416C12.793 18.9138 12.7997 18.6827 12.8055 18.4541C12.8572 16.3898 12.8699 14.3303 12.8456 12.2744C12.8178 10.2192 12.7625 8.16456 12.5858 6.11816C12.5658 5.891 12.544 5.66249 12.5204 5.4375C12.5125 5.36379 12.5312 5.28825 12.575 5.22754C12.6188 5.16687 12.6839 5.12598 12.7567 5.11328Z" fill="#11604D"/>
<path fill-rule="evenodd" clip-rule="evenodd" d="M11.9999 1.25C13.151 1.25003 14.3351 1.6321 15.3377 2.59961C16.0049 3.24336 17.1166 3.90886 18.6571 4.39941C19.6555 4.71752 20.6606 5.03406 21.4022 5.71777C22.192 6.44621 22.5941 7.48811 22.7079 9.02246L22.7332 9.45117C22.8308 11.5725 22.5199 14.432 20.9217 17.1562L20.7518 17.4375C19.6024 19.2864 17.9613 20.6089 16.3582 21.4678C14.7676 22.3199 13.1494 22.75 11.9999 22.75C10.8503 22.75 9.23209 22.3191 7.64145 21.4668C6.03848 20.6078 4.39726 19.2857 3.2479 17.4375C1.3869 14.4429 1.12654 11.2452 1.29184 9.02246C1.40558 7.48864 1.80776 6.44729 2.59751 5.71875C3.33911 5.0348 4.34393 4.71761 5.34262 4.39941C6.88193 3.90878 7.99492 3.24322 8.66196 2.59961C9.66466 1.63213 10.8487 1.25 11.9999 1.25ZM11.9999 2.75C11.1977 2.75 10.3989 3.00721 9.70298 3.67871C8.82799 4.52296 7.49358 5.28863 5.7977 5.8291C4.71964 6.17259 4.06523 6.40518 3.61411 6.82129C3.26158 7.14649 2.96861 7.65386 2.83481 8.66699L2.78794 9.13379C2.63739 11.1582 2.88147 14.0068 4.52134 16.6455L4.71079 16.9365C5.68132 18.3675 7.01482 19.4289 8.35044 20.1445C9.78756 20.9146 11.1615 21.25 11.9999 21.25C12.8383 21.25 14.2123 20.9152 15.6493 20.1455C17.0739 19.3823 18.4965 18.2251 19.4784 16.6455C21.0167 14.1721 21.3265 11.5152 21.2352 9.52344L21.2118 9.13379C21.1131 7.80235 20.7883 7.19279 20.3856 6.82129C19.9345 6.4053 19.2803 6.17267 18.202 5.8291C16.5045 5.28856 15.1716 4.52284 14.2967 3.67871C13.6008 3.00719 12.802 2.75003 11.9999 2.75Z" fill="#11604D"/>
</svg>
