<svg width="24" height="24" viewBox="0 0 24 24" fill="none" xmlns="http://www.w3.org/2000/svg">
<path d="M15.8202 11.8116C14.6706 12.2136 15.216 10.0648 14.95 7.99907C14.5171 4.64212 12.4322 2.41452 10.3541 2.04038C10.2098 2.01441 10.0927 2.14708 10.1135 2.29219C10.3686 4.06971 9.43741 6.42039 8.60936 7.53607C8.50532 7.67625 8.29481 7.61846 8.24595 7.45086C7.97242 6.51266 7.37166 5.70356 6.26761 5.49263C6.13451 5.4672 6.02098 5.58127 6.02686 5.71665C6.11963 7.85054 4.81081 9.56298 4.08698 11.6537C3.43984 13.5191 3.00265 16.1818 4.58688 18.4314C7.07848 21.9722 11.5084 22.3036 14.1186 21.8294C17.3005 21.2517 19.3558 19.2006 20.1067 16.9648C21.5061 12.7982 18.7317 10.3061 18.5985 8.81817C18.585 8.66748 18.4515 8.53159 18.307 8.57663C16.5844 9.11386 17.4125 11.5159 15.82 11.8095L15.8202 11.8116Z" fill="#F05F2B"/>
<path d="M10.4875 1.30259L10.7199 1.35044C13.1144 1.91188 15.2468 4.4321 15.6945 7.90318C15.7668 8.46468 15.782 9.02224 15.7863 9.51646C15.7908 10.0312 15.7838 10.44 15.8029 10.7899C15.8078 10.8805 15.8147 10.9588 15.8224 11.0262C15.9008 10.989 15.9535 10.9365 16.0041 10.8563C16.1104 10.6875 16.1829 10.4542 16.2951 10.0731C16.488 9.41771 16.7949 8.26227 18.0842 7.86021L18.2218 7.82798C18.5387 7.77841 18.8186 7.90214 19.0002 8.06333C19.1729 8.21678 19.2898 8.42652 19.3322 8.65318L19.3459 8.75181L19.3576 8.83286C19.3972 9.03607 19.5217 9.32971 19.757 9.79478C20.0021 10.2793 20.34 10.9037 20.6232 11.6073C21.2048 13.0521 21.5893 14.9062 20.8175 17.204C19.9784 19.702 17.7 21.9413 14.2531 22.5672C11.6047 23.0485 7.01046 22.7729 4.23649 19.2176L3.9738 18.8631C2.17598 16.3101 2.70714 13.3422 3.3781 11.4081L3.52556 11.0086C3.8849 10.0773 4.35166 9.16474 4.67302 8.40806C5.06332 7.48901 5.31668 6.64983 5.27751 5.74888C5.25438 5.21103 5.72367 4.62503 6.40837 4.75572C7.41705 4.94842 8.09382 5.52507 8.5236 6.22642C8.71662 5.84341 8.90339 5.40274 9.05388 4.93345C9.33986 4.04162 9.47636 3.13229 9.37126 2.39927C9.29607 1.87541 9.6954 1.25314 10.3527 1.28697L10.4875 1.30259ZM10.9054 2.98618C10.8969 3.79856 10.7237 4.63666 10.4816 5.39146C10.1574 6.40257 9.68439 7.34687 9.21208 7.98325C8.96323 8.31855 8.56394 8.42103 8.22575 8.33677C7.90235 8.25618 7.62774 8.00776 7.52653 7.66099C7.37561 7.14331 7.12653 6.73732 6.75407 6.48423C6.66783 7.39412 6.38201 8.22234 6.05388 8.99497C5.66467 9.9114 5.2649 10.6641 4.93376 11.5233L4.79606 11.8993C4.17278 13.6959 3.82986 16.0537 5.20036 17.9999L5.41618 18.2909C7.69728 21.2115 11.5758 21.5293 13.9845 21.0917C16.9008 20.5622 18.7328 18.6997 19.3957 16.7264C20.0232 14.8578 19.7206 13.3817 19.2316 12.1668C18.9796 11.541 18.6869 11.0028 18.4181 10.4715C18.291 10.2201 18.1559 9.94793 18.049 9.6688C17.9338 9.85818 17.8442 10.1236 17.7345 10.4959C17.6395 10.8189 17.5127 11.2752 17.2726 11.6561C17.1096 11.9148 16.8928 12.1416 16.6095 12.3075L16.6115 12.3299L16.4767 12.3758C16.348 12.4379 16.2076 12.4877 16.0529 12.5233C15.8314 12.5988 15.561 12.6469 15.2785 12.5751C14.9683 12.496 14.7483 12.3011 14.6076 12.0838C14.4781 11.8838 14.413 11.6623 14.3752 11.4754C14.3361 11.2825 14.3159 11.0751 14.3049 10.8719C14.2833 10.4767 14.2903 9.98558 14.2863 9.52915C14.2821 9.05212 14.2669 8.56587 14.2062 8.09458C13.8568 5.38646 12.3781 3.61061 10.9054 2.98618Z" fill="#9E2B08"/>
<path d="M17.4813 16.7716C17.5436 16.7695 17.6038 16.7896 17.6493 16.8293C17.6946 16.8689 17.723 16.9256 17.7294 16.9875C17.7357 17.0494 17.7189 17.1112 17.6884 17.1642C17.5792 17.3413 17.4565 17.4943 17.3251 17.6418C16.5437 18.497 15.5279 19.1069 14.4081 19.4523C13.8901 19.61 13.3521 19.7059 12.8134 19.7394C10.976 19.8426 9.1318 19.3092 7.73034 18.1291C7.58317 17.9952 7.43558 17.8546 7.30945 17.6593C7.2793 17.6062 7.264 17.5442 7.27136 17.4826C7.27878 17.4208 7.30822 17.3651 7.35437 17.3263C7.40052 17.2876 7.46028 17.2682 7.52234 17.2716C7.58448 17.275 7.64319 17.301 7.69031 17.34C7.79517 17.4129 7.95363 17.4925 8.10437 17.5558C9.5838 18.1326 11.1992 18.3129 12.7196 18.2277C13.1688 18.1996 13.6158 18.1458 14.0604 18.0627C15.0138 17.8811 15.9872 17.5728 16.8856 17.0988C17.0356 17.0173 17.1821 16.9306 17.3114 16.8361C17.3598 16.7985 17.419 16.7738 17.4813 16.7716Z" fill="#FFD885"/>
</svg>
