<svg fill="none" viewBox="0 0 160 88" xmlns="http://www.w3.org/2000/svg">
  <g clip-path="url(#SearchBox-iPad-WithAI_svg__a)">
    <path fill="#e5e5e5" d="M0 24C0 10.745 10.745 0 24 0h112c13.255 0 24 10.745 24 24v40c0 13.255-10.745 24-24 24H24C10.745 88 0 77.255 0 64z"/>
    <path fill="#fff" d="M8 33c0-7.18 5.82-13 13-13h118c7.18 0 13 5.82 13 13v22c0 7.18-5.82 13-13 13H21c-7.18 0-13-5.82-13-13z"/>
    <path fill="#999" d="M150 33c0-6.075-4.925-11-11-11H21c-6.075 0-11 4.925-11 11v22c0 6.075 4.925 11 11 11h118c6.075 0 11-4.925 11-11zm4 22c0 8.284-6.716 15-15 15H21c-8.284 0-15-6.716-15-15V33c0-8.284 6.716-15 15-15h118c8.284 0 15 6.716 15 15z"/>
    <path fill="#999" d="M92 34c0-5.523 4.477-10 10-10h36c5.523 0 10 4.477 10 10s-4.477 10-10 10h-36c-5.523 0-10-4.477-10-10"/>
    <path fill="#fff" d="M138 26a8 8 0 0 1 0 16h-10a8 8 0 0 1 0-16zm-31.75 2a5.25 5.25 0 0 1 4.049 8.592l2.555 2.555.064.078a.502.502 0 0 1-.693.693l-.079-.065-2.554-2.554A5.25 5.25 0 1 1 106.25 28M134 28c-3.314 0-6 2.392-6 5.344 0 1.48.676 2.82 1.769 3.788.239.212.284.58.075.822l-.971 1.118a.531.531 0 0 0 .488.877c1.992-.342 5.481-1.003 6.9-1.654 2.193-.795 3.739-2.712 3.739-4.951 0-2.952-2.686-5.344-6-5.344m0 1c2.873 0 5 2.05 5 4.344 0 1.748-1.213 3.333-3.08 4.01l-.038.015-.038.017c-.601.275-1.73.585-3.035.876-.777.173-1.582.333-2.316.47l.106-.123c.611-.704.432-1.694-.167-2.225-.903-.8-1.432-1.877-1.432-3.04 0-2.294 2.127-4.344 5-4.344m-27.75 0a4.25 4.25 0 1 0 0 8.5 4.25 4.25 0 0 0 0-8.5m28.035 1.453c-.074-.296-.496-.296-.57 0l-.165.658a2.45 2.45 0 0 1-1.782 1.784l-.659.164c-.296.074-.296.496 0 .57l.659.165c.877.22 1.562.905 1.782 1.782l.165.658c.074.297.496.297.57 0l.164-.658a2.45 2.45 0 0 1 1.783-1.782l.659-.165c.296-.075.296-.496 0-.57l-.659-.164a2.45 2.45 0 0 1-1.783-1.784z"/>
  </g>
  <defs>
    <clipPath id="SearchBox-iPad-WithAI_svg__a">
      <path fill="#fff" d="M0 0h160v88H0z"/>
    </clipPath>
  </defs>
</svg>
